STARTFONT 2.3
FONT -FontForge-Indie Flower-Book-R-Normal--32-320-72-72-P-148-ISO10646-1
SIZE 32 72 72  2
FONTBOUNDINGBOX 40 48 -5 -16
COMMENT "Generated by fontforge, http://fontforge.sourceforge.net"
COMMENT "Copyright (c) 2010, Kimberly Geswein (kimberlygeswein.com)"
STARTPROPERTIES 40
FOUNDRY "FontForge"
FAMILY_NAME "Indie Flower"
WEIGHT_NAME "Book"
SLANT "R"
SETWIDTH_NAME "Normal"
ADD_STYLE_NAME ""
PIXEL_SIZE 32
POINT_SIZE 320
RESOLUTION_X 72
RESOLUTION_Y 72
SPACING "P"
AVERAGE_WIDTH 148
CHARSET_REGISTRY "ISO10646"
CHARSET_ENCODING "1"
FONTNAME_REGISTRY ""
CHARSET_COLLECTIONS "ISO8859-2 ISO8859-9 ISO8859-4 ISO10646-1"
BITS_PER_PIXEL 2
FONT_NAME "IndieFlower"
FACE_NAME "Indie Flower"
COPYRIGHT "Copyright (c) 2010, Kimberly Geswein (kimberlygeswein.com)"
FONT_VERSION "1.001 2010"
FONT_ASCENT 26
FONT_DESCENT 6
UNDERLINE_POSITION -3
UNDERLINE_THICKNESS 2
X_HEIGHT 12
CAP_HEIGHT 16
RAW_ASCENT 799
RAW_DESCENT 200
NORM_SPACE 12
RELATIVE_WEIGHT 40
RELATIVE_SETWIDTH 50
SUPERSCRIPT_X 0
SUPERSCRIPT_Y 15
SUPERSCRIPT_SIZE 20
SUBSCRIPT_X 0
SUBSCRIPT_Y 4
SUBSCRIPT_SIZE 20
AVG_LOWERCASE_WIDTH 145
AVG_UPPERCASE_WIDTH 173
ENDPROPERTIES
CHARS 356
STARTCHAR space
ENCODING 32
SWIDTH 375 0
DWIDTH 12 0
BBX 1 1 0 0
BITMAP
00
ENDCHAR
STARTCHAR exclam
ENCODING 33
SWIDTH 149 0
DWIDTH 5 0
BBX 4 27 0 0
BITMAP
04
28
28
28
28
28
28
2C
2C
2C
2C
2C
2C
2C
2C
2C
2C
2C
18
00
00
00
00
04
7F
7F
7D
ENDCHAR
STARTCHAR quotedbl
ENCODING 34
SWIDTH 234 0
DWIDTH 8 0
BBX 7 11 0 15
BITMAP
0050
5060
A070
B074
7474
7874
3878
2C78
1D78
0938
0010
ENDCHAR
STARTCHAR numbersign
ENCODING 35
SWIDTH 768 0
DWIDTH 25 0
BBX 24 16 0 0
BITMAP
000008080000
00001C0D0000
00001C0D0000
00001D0A0000
00001E1BAAA0
00016FFFFEF4
05BFFFAF8010
6FF95E078000
BE400E07AAA9
00001FBFFFFE
005AFFFBD404
07FE9B438000
01400743C000
00000743C000
00000102C000
000000024000
ENDCHAR
STARTCHAR dollar
ENCODING 36
SWIDTH 581 0
DWIDTH 19 0
BBX 18 30 0 0
BITMAP
0000040000
00001C2000
00002C7000
0000287000
00003C7000
00003FF000
0002FFF800
001FF8BD00
003DB4A000
007874A000
0038749000
001EB4D000
0007F4D000
0001F6D000
0000FFE000
0000F7F800
0000F79E00
0000E74780
0000DB02D0
0000DB00E0
7401CA00F0
7D018E00B0
1F428E00F0
02E79E01E0
007FEE02D0
000BFE0B80
0003FFFE00
0003DFA000
00039D0000
00014D0000
ENDCHAR
STARTCHAR percent
ENCODING 37
SWIDTH 636 0
DWIDTH 20 0
BBX 20 20 0 0
BITMAP
0000000040
00000001C0
0140000740
0FF8000E00
3E6E002800
780B40B000
B40741D000
B007434000
781E0A0000
2EFC1D0000
0690380190
0000B41FF4
0001E03D7C
0003D0B41D
000B80E01E
000F01C01D
002E02C03C
003C02C1F4
007400FFD0
0060002A40
ENDCHAR
STARTCHAR ampersand
ENCODING 38
SWIDTH 457 0
DWIDTH 15 0
BBX 14 22 0 0
BITMAP
003D0000
007F0000
007F4000
007F4000
007F4000
007F4000
007F0000
007D0000
007C0000
00B41FF0
00F41FA0
01F81D00
03EC2C00
0B4D3800
0E0BF400
2D03F000
3802E000
7403F000
B40F7400
B43D1C00
7EF40600
1FD00100
ENDCHAR
STARTCHAR quotesingle
ENCODING 39
SWIDTH 102 0
DWIDTH 3 0
BBX 3 8 0 15
BITMAP
70
74
74
78
78
38
28
04
ENDCHAR
STARTCHAR parenleft
ENCODING 40
SWIDTH 421 0
DWIDTH 14 0
BBX 13 21 0 -2
BITMAP
00001A00
0001BF80
0007E580
001E0000
00780000
00E00000
02C00000
07400000
0F000000
1D000000
3C000000
78000000
74000000
74000000
74000000
38000000
2D000000
0F400000
07FA4000
01BFC000
00050000
ENDCHAR
STARTCHAR parenright
ENCODING 41
SWIDTH 290 0
DWIDTH 9 0
BBX 9 21 0 -2
BITMAP
1E4000
0BD000
01F400
007C00
002E00
000F00
000B40
000780
000380
000380
000780
000740
000E00
002D00
007C00
00F400
02E000
0BD000
2F4000
BD0000
640000
ENDCHAR
STARTCHAR asterisk
ENCODING 42
SWIDTH 412 0
DWIDTH 13 0
BBX 13 13 0 7
BITMAP
00000100
04001F40
1E28BD00
0BFEE000
02FFE800
04FFFD00
7FFFE000
17EFE000
0787F400
0B03FC00
0D02ED00
0002C400
00014000
ENDCHAR
STARTCHAR plus
ENCODING 43
SWIDTH 459 0
DWIDTH 15 0
BBX 14 14 0 0
BITMAP
00100000
00380000
002C0000
001D0000
001E0000
001F5000
05BFFFA0
BFFFFFE0
650F4000
000B4000
000B4000
00074000
00074000
00074000
ENDCHAR
STARTCHAR comma
ENCODING 44
SWIDTH 130 0
DWIDTH 4 0
BBX 3 11 0 -6
BITMAP
14
7C
7C
2C
2C
3C
38
78
B4
B0
A0
ENDCHAR
STARTCHAR hyphen
ENCODING 45
SWIDTH 375 0
DWIDTH 12 0
BBX 11 4 0 7
BITMAP
000140
1BFFF4
7FEAB8
100000
ENDCHAR
STARTCHAR period
ENCODING 46
SWIDTH 204 0
DWIDTH 7 0
BBX 5 6 1 0
BITMAP
1D00
3F40
7F80
BF80
7F40
2D00
ENDCHAR
STARTCHAR slash
ENCODING 47
SWIDTH 309 0
DWIDTH 10 0
BBX 10 24 0 0
BITMAP
000090
0001D0
0001C0
0002C0
000380
000740
000B00
000E00
001E00
002D00
003C00
007800
00B400
00F000
02E000
03C000
078000
0B4000
0F0000
1E0000
3D0000
780000
B40000
600000
ENDCHAR
STARTCHAR zero
ENCODING 48
SWIDTH 430 0
DWIDTH 14 0
BBX 13 14 0 0
BITMAP
002F8000
01FFF400
0791BC00
1E001E00
2C000B40
34000780
740003C0
700003C0
74000380
38000780
1D000F40
0B402E00
02FFF800
006FD000
ENDCHAR
STARTCHAR one
ENCODING 49
SWIDTH 318 0
DWIDTH 10 0
BBX 10 19 0 0
BITMAP
000090
0001D0
0001D0
0002D0
0003D0
000BC0
002FC0
00BF80
02EF80
0B8B80
2F0F40
7C0F40
600F00
000F00
000F00
001E00
001D00
001D00
000C00
ENDCHAR
STARTCHAR two
ENCODING 50
SWIDTH 497 0
DWIDTH 16 0
BBX 15 18 0 0
BITMAP
00001400
0001FE00
00038780
000742C0
000601D0
000000E0
000000F0
000000F0
000000E0
000001E0
000002D0
000003C0
00000740
6A400E00
BFF97C00
7FFFFD00
2FFFFFF8
015406B8
ENDCHAR
STARTCHAR three
ENCODING 51
SWIDTH 430 0
DWIDTH 14 0
BBX 13 17 0 0
BITMAP
1AAA8000
2FAAF000
18007800
00002800
00007800
0006E000
06FF4000
0BFF4000
006FF400
0001BD00
00001F00
10000780
780003C0
2E0003C0
0BD00780
01FFBF40
002BF800
ENDCHAR
STARTCHAR four
ENCODING 52
SWIDTH 412 0
DWIDTH 13 0
BBX 13 20 0 0
BITMAP
01000000
0F000000
1E000000
2D000000
3C000000
38000100
74000380
70000740
70000F40
74002F00
38007F00
3D01FE00
1F9BFE00
0BFF9E00
02B90F00
00000F00
00000F00
00000F40
00000F40
00000B00
ENDCHAR
STARTCHAR five
ENCODING 53
SWIDTH 571 0
DWIDTH 18 0
BBX 18 21 0 0
BITMAP
0002FFFF80
000FEAABD0
0007400000
000B000000
001D000000
003C000000
0078000000
00FE400000
00FFF90000
0015BF8000
000006E000
0000007800
0000002C00
0000001D00
1000000E00
7000001E00
7000002E00
7400007D00
2F9416F800
0BFFFFD000
006FFA0000
ENDCHAR
STARTCHAR six
ENCODING 54
SWIDTH 440 0
DWIDTH 14 0
BBX 14 19 0 0
BITMAP
0000BF80
0007FBC0
001F4040
00780000
01E00000
03800000
0B400000
0E000000
2EAA9000
3FFABD00
7E401F40
78000780
700002C0
740002D0
380002C0
3D0007C0
1F906F40
0BFFFD00
01BF9000
ENDCHAR
STARTCHAR seven
ENCODING 55
SWIDTH 412 0
DWIDTH 13 0
BBX 12 17 1 0
BITMAP
FFAA80
6AAB80
000380
000380
000380
000740
000740
015B90
2FFFFD
15AF6E
001E00
001E00
001D00
002C00
003C00
003800
003400
ENDCHAR
STARTCHAR eight
ENCODING 56
SWIDTH 375 0
DWIDTH 12 0
BBX 11 19 0 0
BITMAP
005000
02FE00
0FAFC0
3D02D0
7802C0
740380
780B00
1F6D00
07F800
02FC00
079E00
0F02C0
2D00B0
2D0078
1D002C
0F001C
07802C
01F9B8
002FE0
ENDCHAR
STARTCHAR nine
ENCODING 57
SWIDTH 300 0
DWIDTH 10 0
BBX 10 19 0 0
BITMAP
06F800
1FAF40
3803C0
7403D0
B003D0
B407C0
B80BC0
7D0F80
1FFF80
01AF80
000780
000740
000740
000740
000740
000740
000740
000740
000340
ENDCHAR
STARTCHAR colon
ENCODING 58
SWIDTH 84 0
DWIDTH 3 0
BBX 3 9 0 2
BITMAP
60
74
10
00
00
00
00
70
20
ENDCHAR
STARTCHAR semicolon
ENCODING 59
SWIDTH 128 0
DWIDTH 4 0
BBX 5 19 -1 -6
BITMAP
0400
1E00
1E00
0400
0000
0000
0000
0000
0100
0700
0740
0740
0B00
0F00
1E00
3D00
7C00
7800
6000
ENDCHAR
STARTCHAR less
ENCODING 60
SWIDTH 487 0
DWIDTH 16 0
BBX 15 13 0 0
BITMAP
000000B4
000007E0
00002F40
0001F800
000BD000
007E0000
02F40000
0B800000
2E000000
BFA40000
6FFFF900
016AFFD0
000006D0
ENDCHAR
STARTCHAR equal
ENCODING 61
SWIDTH 524 0
DWIDTH 17 0
BBX 16 9 0 4
BITMAP
01555550
7FFFFFFD
2AAA955E
00000000
00000000
00000000
00000000
6BFFFFF4
2AAAAAA4
ENDCHAR
STARTCHAR greater
ENCODING 62
SWIDTH 403 0
DWIDTH 13 0
BBX 12 15 1 0
BITMAP
A00000
F80000
2F9000
07FE40
006FFD
00017E
00003D
0000B8
0007E0
001F40
00BD00
07E000
2F4000
B80000
E00000
ENDCHAR
STARTCHAR question
ENCODING 63
SWIDTH 272 0
DWIDTH 9 0
BBX 8 28 0 0
BITMAP
1A40
7FF4
A57C
001E
000B
000B
000B
000F
001E
003D
007C
00F4
02F0
03D0
0780
0B40
07F9
02FE
0000
0000
0000
0000
0000
0000
0000
0004
001E
000E
ENDCHAR
STARTCHAR at
ENCODING 64
SWIDTH 815 0
DWIDTH 26 0
BBX 26 29 0 0
BITMAP
00000594000000
0001BFFF800000
000BE41BF40000
003E00006F4000
00F4000007D000
02C0000000B800
07400000002E00
0D000000000B40
1C000000000780
340001BF9002C0
30000F96F801C0
700038002F01D0
6000B0000B01D0
7001D000A101C0
7002C000F402C0
70038000F403C0
34034001F40780
28034001F40B40
1D038002FD2E00
0E02C00BAFFC00
0B40F9BE06E000
03C06FF4000000
01E00540000000
00B80000000000
002E0000000000
000B9000000000
0001F800016F00
00002FA5AFF900
000006FFFA5000
ENDCHAR
STARTCHAR A
ENCODING 65
SWIDTH 562 0
DWIDTH 18 0
BBX 17 25 0 0
BITMAP
0001500000
002FFD0000
00B95F8000
02D002D000
034000F000
0700007400
0A00002C00
0D00001D00
0D00000E00
0C00000A00
1C00000B00
1C00000740
1C00000740
1C00000780
2EAA555B80
7FAAAFFFC0
2D000053C0
1D000003C0
1D000002C0
1D000002C0
1E000002C0
0E000003C0
0F000003C0
0B000007C0
0700000740
ENDCHAR
STARTCHAR B
ENCODING 66
SWIDTH 741 0
DWIDTH 24 0
BBX 23 22 0 0
BITMAP
016FFF900000
2FFFFFF80000
792F402F0000
000F00078000
000B40038000
000740038000
0003800B0000
0002C1BD0000
0002CBF80000
0001D7FE4000
0001E07FE000
0000E006FD00
0000F0001F40
0000B00002D0
0000B40000B0
0000B4000078
00007400003C
00007400003C
0001F400007C
0002FD0001F8
00007FFABFE0
000005AFFE40
ENDCHAR
STARTCHAR C
ENCODING 67
SWIDTH 515 0
DWIDTH 17 0
BBX 16 21 0 0
BITMAP
00001A00
0002FF80
001FD780
007D0340
01E00600
03800000
0B000000
0D000000
28000000
34000000
74000000
70000000
70000000
74000000
74000000
38000000
2C000000
1E000014
0B905BFD
03FFFFA4
00BF9400
ENDCHAR
STARTCHAR D
ENCODING 68
SWIDTH 741 0
DWIDTH 24 0
BBX 23 21 0 -1
BITMAP
06FFF9400000
7FEABFF40000
64003DBF4000
00002D07E000
00001D00BD00
00000E001F40
00000E0007C0
00000B0002E0
00000B0000F0
00000B400074
00000B400038
000007400038
000007800038
000007800078
0000078000B4
0000078002F0
000003400BD0
000090007F80
0000FFABFD00
00006FFFE000
000001540000
ENDCHAR
STARTCHAR E
ENCODING 69
SWIDTH 524 0
DWIDTH 17 0
BBX 15 20 0 0
BITMAP
2AAAAA90
3FFFFFF8
3D400004
3C000000
3C000000
3C000000
3C000000
3C0016A0
3EABFFD0
7FFA9400
38000000
34000000
74000000
74000000
74000000
74000000
74000000
380056A8
2FFFFFFC
06FFFE90
ENDCHAR
STARTCHAR F
ENCODING 70
SWIDTH 514 0
DWIDTH 16 0
BBX 21 19 -1 0
BITMAP
06BFFFFE9000
BFFFFFFFFD00
407E0001BF40
002D00000540
002C00000000
002C00000000
002C00000000
001D00000000
002E55500000
05BFFFFD0000
07FFFFE40000
000F40000000
000B40000000
000740000000
000740000000
000780000000
000780000000
0003C0000000
000280000000
ENDCHAR
STARTCHAR G
ENCODING 71
SWIDTH 571 0
DWIDTH 18 0
BBX 17 19 1 -2
BITMAP
000006A400
0001BFFD00
000BE41900
007D000000
02E0000000
0B80000000
1E00000000
3801401000
B403FFFD00
B001AAAE00
E000000A00
E000000E00
A000000E00
7800002E00
2E4006FE00
0BFFFEAE00
01AA500E00
0000000F40
0000000780
ENDCHAR
STARTCHAR H
ENCODING 72
SWIDTH 524 0
DWIDTH 17 0
BBX 16 22 0 0
BITMAP
00000008
24000028
24000028
28000038
28000038
2C000038
2C000038
2C000038
1D000038
1D0002F8
1D002FF8
1E02FD3C
1E6F902C
1FF9002C
7F90002C
1F40002C
0B40002D
0B40002D
0740001D
0740001E
0740000E
0200000A
ENDCHAR
STARTCHAR I
ENCODING 73
SWIDTH 167 0
DWIDTH 5 0
BBX 5 18 0 0
BITMAP
5000
7000
7400
3800
2C00
2C00
1D00
0E00
0E00
0B00
0B00
0B40
0740
0740
0780
0380
0380
0280
ENDCHAR
STARTCHAR J
ENCODING 74
SWIDTH 439 0
DWIDTH 14 0
BBX 14 23 0 0
BITMAP
00000400
00000D00
00000A00
00000B00
00000B40
00000740
00000780
00000380
000003C0
000002C0
000002C0
000002D0
340001D0
740001D0
380001D0
2D0001D0
0A0001D0
038001D0
01E001D0
007802C0
001F4380
0002FF40
00007E00
ENDCHAR
STARTCHAR K
ENCODING 75
SWIDTH 468 0
DWIDTH 15 0
BBX 14 19 0 0
BITMAP
10001800
7000B400
7402E000
740B8000
342E0000
38780000
29F00000
2FC00000
2F400000
1E000000
1F800000
1FD00000
1DF80000
1D7E0000
1D0BD000
1D01F800
1E002F40
0E0007E0
0A0000B0
ENDCHAR
STARTCHAR L
ENCODING 76
SWIDTH 346 0
DWIDTH 11 0
BBX 11 17 0 0
BITMAP
0D0000
1D0000
2D0000
2D0000
3C0000
3C0000
3C0000
380000
780000
740000
740000
740000
740000
780000
3E5000
1FFFF4
02FFF4
ENDCHAR
STARTCHAR M
ENCODING 77
SWIDTH 534 0
DWIDTH 17 0
BBX 16 20 0 0
BITMAP
20000014
7C00003C
3E00007C
1F4000BC
0FC001FC
0FE003F8
0FBA6FF8
0E2FFEB8
0E069038
0E00003C
0E00002C
0E00002C
1E00002D
1E00002D
1E00001E
1E00001E
1E00001F
1E00000F
0E00000F
0000000B
ENDCHAR
STARTCHAR N
ENCODING 78
SWIDTH 609 0
DWIDTH 20 0
BBX 18 17 1 0
BITMAP
B000000000
B000003400
B400003C00
7800003E00
7C00002F00
BD00000F40
BE00000780
BF400003C0
BF800001D0
B2C00001E0
E1E00001E0
E0B40001E0
E03D0002D0
F01F8007C0
F007F96F40
F001BFFD00
A0001A9000
ENDCHAR
STARTCHAR O
ENCODING 79
SWIDTH 609 0
DWIDTH 20 0
BBX 19 16 0 0
BITMAP
0015000000
02FFE40000
0B96BF8000
1E0007F400
3800007D00
7400001F40
70000003D0
70000001E0
74000000B0
3800000074
3C00000078
1E00000074
0B800001F0
03F8001BD0
00BFABFE00
001AFE9000
ENDCHAR
STARTCHAR P
ENCODING 80
SWIDTH 627 0
DWIDTH 20 0
BBX 20 19 0 0
BITMAP
0AFFFA4000
7EAABFF900
740001BF80
70004007F0
0000C000B8
0001D0002D
0001D0001D
0001D0001E
0001D0002D
0001E000B8
0000F41BE0
0000FFFF40
0000FFE400
0000B40000
0000B40000
0000740000
0000740000
0000380000
0000240000
ENDCHAR
STARTCHAR Q
ENCODING 81
SWIDTH 642 0
DWIDTH 21 0
BBX 20 21 1 -4
BITMAP
00BFE00000
07EBFE0000
1E002FC000
38000BF400
74000B7D00
B0000A1F40
E0000907C0
E0000001E0
E0000000B4
E000100078
F000740038
B4003D0038
3C001E00B4
1F400B87E0
07E41FFF80
01FFFFFE00
001BFABE00
0000000780
00000001F4
000000007E
0000000019
ENDCHAR
STARTCHAR R
ENCODING 82
SWIDTH 579 0
DWIDTH 19 0
BBX 19 22 -1 -2
BITMAP
01AFFE4000
1FFFFFF800
3D00016F40
74000007D0
20200001E0
00340000E0
00340002E0
0038006FC0
003D6BFE00
003FFF9000
002F940000
002F000000
001FC00000
001EE00000
000D780000
000A1E0000
000B078000
000701F400
0003407E00
0001000BD0
00000001F8
0000000010
ENDCHAR
STARTCHAR S
ENCODING 83
SWIDTH 627 0
DWIDTH 20 0
BBX 20 21 0 -1
BITMAP
0000040000
0006FFE800
002E957F40
00B40007D0
00A0000040
00B0000000
0078000000
002E000000
000BE00000
0000BE0000
00001BE000
000001BE00
1400001FD0
34000001F4
780000007C
3C0000003D
1E0000003C
07D0000078
00BFAAABF0
0006FFFE40
0000014000
ENDCHAR
STARTCHAR T
ENCODING 84
SWIDTH 581 0
DWIDTH 19 0
BBX 22 20 0 0
BITMAP
555554000000
BFFFFFFEA400
015AAFABFF80
00000E001AD0
00000E000000
00000E000000
00000E000000
00000B000000
00000B000000
00000B000000
00000B400000
000007400000
000007800000
000007800000
000003C00000
000003C00000
000002D00000
000002E00000
000001F40000
000000B40000
ENDCHAR
STARTCHAR U
ENCODING 85
SWIDTH 571 0
DWIDTH 18 0
BBX 17 18 1 0
BITMAP
1400000000
7800009000
A00000E000
D00000F000
D00000F000
D00000F000
D00000F000
D00000B000
E000007400
A000003800
B000003C00
7400003D00
3800007E00
2C0001FF00
1E0007EF40
0BD16E0B80
03FFF40380
00BF800000
ENDCHAR
STARTCHAR V
ENCODING 86
SWIDTH 421 0
DWIDTH 14 0
BBX 13 17 0 0
BITMAP
50000140
78000380
3D000780
2E000780
1F000B40
0F400F40
07C00F00
03D01F00
02E01E00
01F42D00
00B83C00
007C3C00
002E7800
001FB000
000BE000
0007D000
00024000
ENDCHAR
STARTCHAR W
ENCODING 87
SWIDTH 703 0
DWIDTH 23 0
BBX 22 16 0 0
BITMAP
200000000400
B00000001E00
B00000001F00
B00000000F40
B40000000B80
B400000007C0
B400240002D0
7800380001E0
78003C0000E0
38003D0000F0
3C007E0000F0
2D00BF4001E0
1E02FBC003D0
0B9B81F41F80
03FE007FFE00
00A4000BE400
ENDCHAR
STARTCHAR X
ENCODING 88
SWIDTH 534 0
DWIDTH 17 0
BBX 17 19 0 -2
BITMAP
0600000000
0740000640
02C0002E40
01E000F800
00B403D000
00381F0000
001EB80000
000FE00000
000FC00000
002FC00000
007AE00000
01F0B40000
03D03D0000
0B401F0000
1E00078000
2D0002D000
380000B000
7400000000
6000000000
ENDCHAR
STARTCHAR Y
ENCODING 89
SWIDTH 403 0
DWIDTH 13 0
BBX 13 22 0 -1
BITMAP
50000000
70000100
78000740
3D000740
1F000B00
0B800F00
02E02E00
00BE7D00
001FFC00
0002F400
0000F000
0001E000
0002D000
0002C000
00038000
00074000
00074000
000B0000
000B0000
000B0000
000B0000
00010000
ENDCHAR
STARTCHAR Z
ENCODING 90
SWIDTH 571 0
DWIDTH 18 0
BBX 18 20 0 0
BITMAP
06AA400000
7FEBF80000
64006E0000
00000B4000
0000038000
0000028000
0000028000
0000038000
00000B4000
00016FE900
00BFFFFF40
01EAFE4400
0000B40000
0000E00000
0002C00000
000B400000
001E000040
002D016FE0
001FBFFF90
000BFF9400
ENDCHAR
STARTCHAR bracketleft
ENCODING 91
SWIDTH 477 0
DWIDTH 15 0
BBX 18 26 0 -3
BITMAP
0000015400
0001BFF400
006FF90000
1BF9000000
7E40000000
7800000000
3C00000000
2D00000000
1E00000000
0F00000000
0F00000000
0B40000000
0740000000
0380000000
0380000000
0280000000
02C0000000
01C0000000
01C0000000
00D0000000
00D0000000
00E0000000
00E0000000
00F56AAA80
00BFFFFFD0
00A5400000
ENDCHAR
STARTCHAR backslash
ENCODING 92
SWIDTH 430 0
DWIDTH 14 0
BBX 14 18 0 0
BITMAP
40000000
A0000000
78000000
2E000000
0F800000
07D00000
01F40000
00BD0000
002F0000
000F8000
0007E000
0002F400
0000BC00
00003E00
00001F40
000007C0
000003D0
00000280
ENDCHAR
STARTCHAR bracketright
ENCODING 93
SWIDTH 430 0
DWIDTH 14 0
BBX 14 30 0 -3
BITMAP
59500000
7FFF9000
05AFF800
00007D00
00002E00
00001E00
00000F00
00000B00
00000B00
00000700
00000740
00000740
00000340
00000340
00000340
00000340
00000380
00000380
00000380
00000280
00000380
00000380
000003C0
000003C0
000003C0
000003C0
000003C0
055557C0
0FFFFFD0
0BFFFF80
ENDCHAR
STARTCHAR asciicircum
ENCODING 94
SWIDTH 375 0
DWIDTH 12 0
BBX 10 7 1 17
BITMAP
005000
00B400
00FC00
02FE00
0BAF80
2E0BC0
7802D0
ENDCHAR
STARTCHAR underscore
ENCODING 95
SWIDTH 656 0
DWIDTH 21 0
BBX 20 4 1 0
BITMAP
5000000000
BFEAA55554
06BFFFFFFD
00015AABFD
ENDCHAR
STARTCHAR grave
ENCODING 96
SWIDTH 172 0
DWIDTH 6 0
BBX 5 4 0 14
BITMAP
6400
3D00
0F80
02C0
ENDCHAR
STARTCHAR a
ENCODING 97
SWIDTH 505 0
DWIDTH 16 0
BBX 16 16 0 0
BITMAP
002F8000
007FF400
00507E00
00000B40
000003C0
000002E0
00AEA5F0
07FEBFF4
1F9007F8
3C0001FC
7400007C
7400001C
38000008
1F9456A9
07FFFFF8
006BFA40
ENDCHAR
STARTCHAR b
ENCODING 98
SWIDTH 497 0
DWIDTH 16 0
BBX 16 21 0 0
BITMAP
10000000
74000000
B4000000
74000000
78000000
38000000
38000000
3C000000
2C000000
2D000000
1EAA5000
1FFFFD00
0F806F80
0F0002F0
0F000078
0B00002C
0B00001D
0780003D
03E401BC
01FFAFF4
006FFE40
ENDCHAR
STARTCHAR c
ENCODING 99
SWIDTH 449 0
DWIDTH 14 0
BBX 14 14 0 0
BITMAP
006FE000
02FABC00
0B401D00
1E000900
3C000400
78000000
74000000
74000000
78000000
3C000000
2E000000
0F900000
07FFAA90
006FFE80
ENDCHAR
STARTCHAR d
ENCODING 100
SWIDTH 524 0
DWIDTH 17 0
BBX 16 23 0 0
BITMAP
00000600
00000B80
000007C0
000003D0
000003E0
000002F0
000001F4
000000F4
000000F8
01BE40B8
07FFE4BC
1FE5BEBC
2F001BFC
3D0002FC
7C0000BD
780000BD
780000FD
780002FD
3C000BFE
2E002F1E
0F45FD0F
07FFE006
01FE4000
ENDCHAR
STARTCHAR e
ENCODING 101
SWIDTH 515 0
DWIDTH 17 0
BBX 15 17 0 0
BITMAP
00064000
00BFF400
07D07C00
0F001E00
1D000E00
38000E00
38002D00
7401BC00
765BE000
76FE4000
78000000
3C000000
1D000000
0B400000
03F90014
00BFFFF8
000AFE80
ENDCHAR
STARTCHAR f
ENCODING 102
SWIDTH 376 0
DWIDTH 12 0
BBX 16 23 -1 0
BITMAP
00005500
0007FF80
000F96F4
002D00BC
0034002D
00700004
00A00000
00A00000
00E00000
00E00000
00F00000
00F00000
00F54000
2FFFFF00
79BEBE00
003D0000
001E0000
000F0000
000B8000
0003D000
0002F000
0000F800
00007800
ENDCHAR
STARTCHAR g
ENCODING 103
SWIDTH 366 0
DWIDTH 12 0
BBX 17 29 -5 -16
BITMAP
00001BE000
00007EB800
0001E02C00
0003801D00
000B401E00
000E001F00
001D001F00
001D001F00
001E002F40
000F40BF40
0007EBFF40
0001FF9F40
0000140F40
0000000B40
0000000B40
0000000740
0000000780
0000000380
0000000380
0000000380
2400000380
7400000780
3800000740
2D00000B40
0F90000F00
02F9002E00
007FE9BD00
0006FFF400
00001A9000
ENDCHAR
STARTCHAR h
ENCODING 104
SWIDTH 427 0
DWIDTH 14 0
BBX 14 23 -1 0
BITMAP
10000000
74000000
78000000
3C000000
2D000000
1D000000
1E000000
0E000000
0F054000
0BBFF400
0BFFFD00
07D01E00
07400740
07400380
074002C0
038001D0
038001D0
038001D0
03C001E0
03C002D0
02C002D0
02D002D0
01C00280
ENDCHAR
STARTCHAR i
ENCODING 105
SWIDTH 174 0
DWIDTH 6 0
BBX 5 19 0 0
BITMAP
B400
6400
0000
0000
0000
0D00
0D00
0E00
0E00
0E00
0F00
0F00
0B40
0B80
0B80
07C0
07C0
03C0
0280
ENDCHAR
STARTCHAR j
ENCODING 106
SWIDTH 200 0
DWIDTH 6 0
BBX 11 34 -4 -15
BITMAP
002400
003C00
001800
000000
000000
000000
000500
000700
000740
000780
0003C0
0003D0
0002D0
0002E0
0001F0
0001F0
0000F4
0000B4
0000B8
000078
000078
00003C
50003C
B0003C
74002C
3C002C
2D002C
1F002C
0B802C
03D02C
00F97C
002FF8
0007F4
000040
ENDCHAR
STARTCHAR k
ENCODING 107
SWIDTH 403 0
DWIDTH 13 0
BBX 13 20 0 0
BITMAP
40000000
D0000000
E0000000
B0000000
B0000000
74001000
7801F000
3803D000
2C0B4000
2C1D0000
1D740000
1FE00000
1FC00000
1F800000
0F800000
0FD00000
1FF90000
1E2FE500
1D06FF80
1D006A40
ENDCHAR
STARTCHAR l
ENCODING 108
SWIDTH 120 0
DWIDTH 4 0
BBX 3 18 0 0
BITMAP
34
38
38
38
38
3C
3C
3C
7C
7C
3C
3C
3C
3C
3C
3C
38
28
ENDCHAR
STARTCHAR m
ENCODING 109
SWIDTH 750 0
DWIDTH 24 0
BBX 22 14 1 0
BITMAP
000000015000
42A4002FF800
EFFF40BEAF00
FF57D7E40B80
FC01FF8003C0
F400BF0002D0
F0007D0001E0
F0003D0000F0
B0002E0000B0
B0001F0000B0
B4000F0000B0
B400070000F0
7400000000E0
1000000000D0
ENDCHAR
STARTCHAR n
ENCODING 110
SWIDTH 459 0
DWIDTH 15 0
BBX 13 14 1 0
BITMAP
006F8000
46FFF000
FF40B800
FC003D00
F4001E00
F0000F00
F0000B40
F0000780
B40003C0
B80003C0
780003C0
3C0003C0
2C0003C0
09000380
ENDCHAR
STARTCHAR o
ENCODING 111
SWIDTH 487 0
DWIDTH 16 0
BBX 15 13 0 0
BITMAP
001BF900
01FFFF40
0BD01BD0
1E0001F0
380000B4
74000038
70000038
74000078
380001F4
2D0007F0
1F802FD0
07FFFE40
00AFE400
ENDCHAR
STARTCHAR p
ENCODING 112
SWIDTH 520 0
DWIDTH 17 0
BBX 16 22 0 -11
BITMAP
006FFE40
02FFAFE0
0FD001B8
2E00002D
3D00000E
7D00000F
7D50000F
7E79006E
7E3FEBFD
3E0BFFE0
3F000000
2F000000
1F400000
1F400000
0F800000
0B800000
0BC00000
07C00000
03D00000
02D00000
01E00000
00E00000
ENDCHAR
STARTCHAR q
ENCODING 113
SWIDTH 412 0
DWIDTH 13 0
BBX 12 26 0 -10
BITMAP
001BA0
01FAFD
07801E
0F000F
2D000F
38001E
74001E
74002E
70002E
70002D
74002D
3C003D
1E003D
0BEAFC
02FFFC
00157C
00002C
00002D
00001D
00001D
00001D
00001E
00001E
00001E
00000E
00000A
ENDCHAR
STARTCHAR r
ENCODING 114
SWIDTH 346 0
DWIDTH 11 0
BBX 11 15 0 0
BITMAP
001500
06FFE0
7F96F8
7C0004
780000
780000
380000
380000
2C0000
2D0000
1E0000
0F0000
0B4000
074000
024000
ENDCHAR
STARTCHAR s
ENCODING 115
SWIDTH 514 0
DWIDTH 16 0
BBX 16 15 0 0
BITMAP
00694000
07FFF400
1F517C00
2C001C00
2C001C00
1E000400
0BE50000
01BFFE80
00015BF4
0000007D
0000002D
7800002E
2F40007D
0BFEAFF8
006BFF90
ENDCHAR
STARTCHAR t
ENCODING 116
SWIDTH 328 0
DWIDTH 11 0
BBX 10 20 0 0
BITMAP
00E000
00F000
00F000
00F000
00F000
00F000
00F400
6FFFE0
6FFEA0
00B400
00F400
00F400
00F400
00F400
00B400
00B400
00B400
007400
007400
002400
ENDCHAR
STARTCHAR u
ENCODING 117
SWIDTH 501 0
DWIDTH 16 0
BBX 16 15 0 0
BITMAP
24000000
74000040
B40002C0
B00002D0
740002D0
740002E0
780002E0
3C0002E0
2D0003E0
1E000BF0
0B401FF4
07D07878
01FFF02C
006F802D
0000001D
ENDCHAR
STARTCHAR v
ENCODING 118
SWIDTH 389 0
DWIDTH 12 0
BBX 12 12 0 0
BITMAP
600000
78000A
3D001E
1E003C
0F0074
0740F0
03C1E0
01D2D0
00F7C0
007F80
002F00
000D00
ENDCHAR
STARTCHAR w
ENCODING 119
SWIDTH 656 0
DWIDTH 21 0
BBX 20 14 0 0
BITMAP
0400000000
2800000000
3800000010
7400000074
B4000D002C
B0000E001D
B0001E000E
74001F000F
78001F000B
3C002F400F
1D00BF801F
0B46F6E5BE
03FFD0BFF8
00BE401550
ENDCHAR
STARTCHAR x
ENCODING 120
SWIDTH 448 0
DWIDTH 14 0
BBX 14 15 0 -2
BITMAP
40000010
E00001F0
7D000BC0
2F002E00
0BD1F400
02FBC000
00BE0000
007F4000
00EFD000
0282F400
0700BD00
0D002F00
0C000B80
000002D0
00000080
ENDCHAR
STARTCHAR y
ENCODING 121
SWIDTH 487 0
DWIDTH 16 0
BBX 15 30 0 -16
BITMAP
20000090
700000A0
700000A0
700000B0
740000B4
380000B4
3C000074
2D000078
1E0000B8
0B4001F8
03C007FC
01F9BE7C
006FF41C
0005401C
0000001C
0000001C
0000001C
0000002C
0000002C
0000002C
00000038
00000038
00000074
28000074
1E0000B0
0F8000E0
03F402D0
00BE5B80
001FFF00
00016400
ENDCHAR
STARTCHAR z
ENCODING 122
SWIDTH 459 0
DWIDTH 15 0
BBX 14 17 0 0
BITMAP
01594000
1FFFE000
7D55B400
24003800
00003800
00003800
0000B400
0000F000
16AFFF40
2FFFA500
006E0000
00780000
01F00000
03E00050
07E45BE0
03FFFF90
00BFA400
ENDCHAR
STARTCHAR braceleft
ENCODING 123
SWIDTH 393 0
DWIDTH 13 0
BBX 13 32 0 -3
BITMAP
00019000
006FFD00
02F91E00
0B800100
1F000000
3D000000
78000000
74000000
70000000
34000000
2C000000
1F400000
07F40000
01FF8000
002FE000
007FE000
02F9B400
1F807800
28007800
0000F400
0002E000
000B8000
007D0000
01E00000
07800000
0B000000
0E000000
0E000000
0B400000
07D00000
02FAAF40
00BFF900
ENDCHAR
STARTCHAR bar
ENCODING 124
SWIDTH 149 0
DWIDTH 5 0
BBX 4 21 0 0
BITMAP
50
60
70
34
38
2C
1C
1D
0D
0E
0E
0E
0E
0F
0F
0F
0F
0B
0B
0B
0B
ENDCHAR
STARTCHAR braceright
ENCODING 125
SWIDTH 440 0
DWIDTH 14 0
BBX 14 38 0 -8
BITMAP
7FFF9000
BA5AF400
79007C00
19001E00
00001E00
00001E00
00007D00
0001F400
0007D000
001F4000
007C0000
00F00000
01D00000
01E00000
00FFFD00
00FFFD00
00F40000
00E00000
00F40000
007C0000
001F0000
00078000
0001E000
00007400
00002C00
00001E00
00000B00
00000740
000002C0
000001C0
000001D0
000001D0
000002C0
E0000780
B8001F40
3F95BD00
0BFFE400
00140000
ENDCHAR
STARTCHAR asciitilde
ENCODING 126
SWIDTH 402 0
DWIDTH 13 0
BBX 12 5 0 13
BITMAP
010000
1FE01E
387EB8
700BE0
300000
ENDCHAR
STARTCHAR nonbreakingspace
ENCODING 160
SWIDTH 375 0
DWIDTH 12 0
BBX 1 1 0 0
BITMAP
00
ENDCHAR
STARTCHAR exclamdown
ENCODING 161
SWIDTH 149 0
DWIDTH 5 0
BBX 4 22 0 -1
BITMAP
3E
7F
19
00
00
00
04
1C
2C
2C
2C
2C
2C
2C
2C
2C
2C
2C
2C
2C
28
14
ENDCHAR
STARTCHAR cent
ENCODING 162
SWIDTH 449 0
DWIDTH 14 0
BBX 14 19 0 -2
BITMAP
00090000
000A0000
000B0000
006FE400
02EBBC00
0B475D00
1D078900
3C038400
78038000
74038000
74038000
78038000
3C038000
2E038000
1F938000
07FFEA90
01BFFA80
00038000
00020000
ENDCHAR
STARTCHAR sterling
ENCODING 163
SWIDTH 758 0
DWIDTH 24 0
BBX 24 23 0 0
BITMAP
00000001BF90
0000000BEAF4
0000001E007C
00000038001D
00000070000D
000000A00000
000000D00000
000002C00000
000007D55400
00016FFFFD00
006FFFF95800
00A95B800000
00000B000000
00000A000000
00000D000000
00001C000000
000028000000
000074000000
0540B0000000
7FFFFFE90000
BFFFFFFF8000
7FFE55694000
1BE400000000
ENDCHAR
STARTCHAR currency
ENCODING 164
SWIDTH 618 0
DWIDTH 20 0
BBX 17 16 1 1
BITMAP
E000000040
7C01BF42C0
2F6FFFEF40
0BFE56FD00
03E0002D00
0780000B00
0B00000700
0A00000340
0A00000740
0B00000B00
0740001E00
02D0007C00
03F917F000
0BAFFFF000
1E01507C00
1C00001E00
ENDCHAR
STARTCHAR yen
ENCODING 165
SWIDTH 389 0
DWIDTH 12 0
BBX 13 24 0 0
BITMAP
18000000
2D000180
0F000B80
0B400F00
07402D00
02807C00
01C0B400
00D1F000
00B2D000
003FC000
002F4000
001F0000
000E0000
6AAF5000
1ABFFC00
001E0000
001D0000
2FFFE000
1ABFE400
002D0000
002D0000
003D0000
003C0000
003C0000
ENDCHAR
STARTCHAR brokenbar
ENCODING 166
SWIDTH 117 0
DWIDTH 4 0
BBX 3 20 0 -1
BITMAP
10
34
38
38
38
38
38
38
24
10
78
78
78
78
78
38
38
38
28
04
ENDCHAR
STARTCHAR section
ENCODING 167
SWIDTH 514 0
DWIDTH 16 0
BBX 15 21 1 0
BITMAP
06FF9000
1FEBFD00
3D001F80
380007D0
38000050
1E400000
07FEA400
1FFFFF90
7E5006F4
B400007C
B000003C
B800007C
3F9556F8
0BFFFFD0
0056AFD0
000001F0
000000B4
B40000B8
3E4001F4
0BFABFE0
01AFFE40
ENDCHAR
STARTCHAR dieresis
ENCODING 168
SWIDTH 397 0
DWIDTH 13 0
BBX 9 4 2 13
BITMAP
280900
BD2F40
BC2F00
100400
ENDCHAR
STARTCHAR copyright
ENCODING 169
SWIDTH 667 0
DWIDTH 21 0
BBX 20 18 1 0
BITMAP
001AA90000
00BFFFE400
03D006FD00
0B00142F80
1D02FF47D0
380B57C1F4
742D01D078
B03400802C
E07400401D
E0B400000E
A0B400000A
B07400000B
783C00000B
3D2FAAA81E
1F46FFF5BC
0BE4005BE0
01FFABFE40
001BFE9000
ENDCHAR
STARTCHAR ordfeminine
ENCODING 170
SWIDTH 266 0
DWIDTH 9 0
BBX 8 9 0 7
BITMAP
0240
05A0
0024
014C
2EBD
600E
5006
2555
0BE8
ENDCHAR
STARTCHAR guillemotleft
ENCODING 171
SWIDTH 755 0
DWIDTH 24 0
BBX 22 15 0 0
BITMAP
0000000001B0
000000000BD0
000000B47E00
000007E2F400
00002F5F8000
0001F87D0000
000BD2E00000
007E1F400000
02F47D000000
0B80FF940000
2E006FFFF900
BFA4016AFF80
6FFFF90006C0
016AFFD00000
000006D00000
ENDCHAR
STARTCHAR logicalnot
ENCODING 172
SWIDTH 369 0
DWIDTH 12 0
BBX 10 5 1 8
BITMAP
AAABF0
FFAAF0
0000B0
0000B0
0000A0
ENDCHAR
STARTCHAR hyphen_
ENCODING 173
SWIDTH 375 0
DWIDTH 12 0
BBX 11 4 0 7
BITMAP
000140
1BFFF4
7FEAB8
100000
ENDCHAR
STARTCHAR registered
ENCODING 174
SWIDTH 708 0
DWIDTH 23 0
BBX 20 19 1 0
BITMAP
0005540000
007FFF9000
01E56BF800
074000BF40
0E15550BD0
2CBFFFE1F0
39D00078B8
7087003C2C
B00B407C1D
E00BAAF40E
A007EA400A
B007D0000B
7407B8000B
3C035F400E
2E0282D07D
0BD1407AF4
02FD55BF90
007FFFE400
0005A50000
ENDCHAR
STARTCHAR macron
ENCODING 175
SWIDTH 287 0
DWIDTH 9 0
BBX 9 3 1 15
BITMAP
015400
7FFF00
FEAA40
ENDCHAR
STARTCHAR degree
ENCODING 176
SWIDTH 254 0
DWIDTH 8 0
BBX 7 9 0 9
BITMAP
0680
1EF0
6024
9008
800C
801C
5028
35B0
1B80
ENDCHAR
STARTCHAR plusminus
ENCODING 177
SWIDTH 459 0
DWIDTH 15 0
BBX 14 14 0 1
BITMAP
002C0000
002D0000
001E0000
000E0000
000F4000
016FFEA0
6FFFFFF0
695B8000
00078000
00078000
00078000
00079540
06FFFFE0
1FA95550
ENDCHAR
STARTCHAR twosuperior
ENCODING 178
SWIDTH 296 0
DWIDTH 10 0
BBX 8 11 0 7
BITMAP
0050
01E8
0149
0009
0006
0009
000D
0018
B924
BFF4
1A6B
ENDCHAR
STARTCHAR threesuperior
ENCODING 179
SWIDTH 204 0
DWIDTH 7 0
BBX 7 11 0 8
BITMAP
1500
AA80
0090
01C0
2F00
2F80
01A0
0030
D024
7474
0BD0
ENDCHAR
STARTCHAR acute
ENCODING 180
SWIDTH 180 0
DWIDTH 6 0
BBX 5 6 0 12
BITMAP
0040
02C0
1F40
7D00
B000
4000
ENDCHAR
STARTCHAR mu
ENCODING 181
SWIDTH 501 0
DWIDTH 16 0
BBX 16 17 0 -2
BITMAP
34000000
74000040
B40002C0
700002D0
740002E0
740002E0
780002E0
7C0002E0
7D0003E0
7E000BF0
BF402FF4
BBE0BDB8
B2FFF43C
B06F902D
B0000019
B0000000
B0000000
ENDCHAR
STARTCHAR paragraph
ENCODING 182
SWIDTH 413 0
DWIDTH 13 0
BBX 12 18 0 -1
BITMAP
005550
07FFFC
1FFFFD
3FFFFE
7FFFCE
7FFFCF
7FFF8B
3FFF8B
1A9B8F
00038F
00038F
00038F
00038F
00038F
00038F
00038F
00038A
000149
ENDCHAR
STARTCHAR periodcentered
ENCODING 183
SWIDTH 212 0
DWIDTH 7 0
BBX 5 5 1 5
BITMAP
0400
2F00
7F40
3F00
0400
ENDCHAR
STARTCHAR cedilla
ENCODING 184
SWIDTH 445 0
DWIDTH 14 0
BBX 8 11 5 -10
BITMAP
5000
A000
A000
7400
2F90
01BD
000B
500B
B80B
2EAD
06A4
ENDCHAR
STARTCHAR onesuperior
ENCODING 185
SWIDTH 197 0
DWIDTH 6 0
BBX 7 13 -1 7
BITMAP
0004
0018
0028
0034
00F4
02F4
0AB0
28B0
60A0
00A0
00A0
00D0
0080
ENDCHAR
STARTCHAR ordmasculine
ENCODING 186
SWIDTH 254 0
DWIDTH 8 0
BBX 7 9 0 9
BITMAP
0680
1EF0
6024
9008
800C
801C
5028
35B0
1B80
ENDCHAR
STARTCHAR guillemotright
ENCODING 187
SWIDTH 659 0
DWIDTH 21 0
BBX 19 16 1 0
BITMAP
0001400000
A003E00000
F801FD0000
2F902FE400
07FE41FFE4
006FFD06F8
00017E00F8
00003D02F0
0000B80BD0
0007E02E00
001F41F800
00BD0BD000
07E07E0000
2F41F40000
B803800000
E000000000
ENDCHAR
STARTCHAR onequarter
ENCODING 188
SWIDTH 626 0
DWIDTH 20 0
BBX 19 25 0 -1
BITMAP
0000040000
00000C0000
0000180000
0024180000
0024280000
0034340000
00B4300000
02F0700000
0AB0A00000
28A0E00000
60A0D00000
00A1C00000
00D2820000
00C38B0000
00874D0000
00070C0024
000A1C0074
000E1C00B0
001D0D02F0
002C07AFE0
003801B8B0
0074000070
0070000070
00A0000070
0090000000
ENDCHAR
STARTCHAR onehalf
ENCODING 189
SWIDTH 566 0
DWIDTH 18 0
BBX 17 24 0 -1
BITMAP
0000090000
00180C0000
00181C0000
00281C0000
0038280000
00B8340000
02F4340000
0BF4700000
1DB0A00000
74B0E00000
A0B1D06800
00A2C0D900
00A2818700
00D3804300
00D7400340
008B000340
000E000340
001D000700
001C000A00
0038500C00
0075FEB400
00B0FFFE40
00A0195BC0
0090000000
ENDCHAR
STARTCHAR threequarters
ENCODING 190
SWIDTH 566 0
DWIDTH 18 0
BBX 18 25 0 -2
BITMAP
0000040000
0000090000
00000D0000
00000C0000
2F801C0000
2460280000
0020240000
01D0340000
2F40700000
06D0B20000
0074A70000
4018DA0000
600DC90040
296ACC0090
07E28C01C0
00034903C0
00070A0B80
000B03FE80
000A01A1C0
000D0001C0
001C0001C0
00280000C0
0034000000
0070000000
0020000000
ENDCHAR
STARTCHAR questiondown
ENCODING 191
SWIDTH 272 0
DWIDTH 9 0
BBX 9 24 0 0
BITMAP
2D0000
2D0000
000000
000000
000000
000000
000000
000000
154000
2FF400
01BC00
00B800
01F400
03E000
0BC000
0F4000
2E0000
3D0000
780000
780000
3C0000
1E0040
0BEBC0
01AA00
ENDCHAR
STARTCHAR Agrave
ENCODING 192
SWIDTH 562 0
DWIDTH 18 0
BBX 17 30 0 0
BITMAP
0002400000
0002E00000
0000B80000
00002C0000
0000000000
0001500000
002FFD0000
00B95F8000
02D002D000
034000F000
0700007400
0A00002C00
0D00001D00
0D00000E00
0C00000A00
1C00000B00
1C00000740
1C00000740
1C00000780
2EAA555B80
7FAAAFFFC0
2D000053C0
1D000003C0
1D000002C0
1D000002C0
1E000002C0
0E000003C0
0F000003C0
0B000007C0
0700000740
ENDCHAR
STARTCHAR Aacute
ENCODING 193
SWIDTH 562 0
DWIDTH 18 0
BBX 17 30 0 0
BITMAP
0000400000
0002D00000
000F400000
003D000000
0074000000
0011500000
002FFD0000
00B95F8000
02D002D000
034000F000
0700007400
0A00002C00
0D00001D00
0D00000E00
0C00000A00
1C00000B00
1C00000740
1C00000740
1C00000780
2EAA555B80
7FAAAFFFC0
2D000053C0
1D000003C0
1D000002C0
1D000002C0
1E000002C0
0E000003C0
0F000003C0
0B000007C0
0700000740
ENDCHAR
STARTCHAR Acircumflex
ENCODING 194
SWIDTH 562 0
DWIDTH 18 0
BBX 17 32 0 0
BITMAP
0001400000
0003D00000
0007F00000
000BF80000
002EBE0000
00B82F0000
01E00B0000
0001500000
002FFD0000
00B95F8000
02D002D000
034000F000
0700007400
0A00002C00
0D00001D00
0D00000E00
0C00000A00
1C00000B00
1C00000740
1C00000740
1C00000780
2EAA555B80
7FAAAFFFC0
2D000053C0
1D000003C0
1D000002C0
1D000002C0
1E000002C0
0E000003C0
0F000003C0
0B000007C0
0700000740
ENDCHAR
STARTCHAR Atilde
ENCODING 195
SWIDTH 562 0
DWIDTH 18 0
BBX 17 30 0 0
BITMAP
0010000000
02FD01E000
0747EB8000
0700BE0000
0700000000
0001500000
002FFD0000
00B95F8000
02D002D000
034000F000
0700007400
0A00002C00
0D00001D00
0D00000E00
0C00000A00
1C00000B00
1C00000740
1C00000740
1C00000780
2EAA555B80
7FAAAFFFC0
2D000053C0
1D000003C0
1D000002C0
1D000002C0
1E000002C0
0E000003C0
0F000003C0
0B000007C0
0700000740
ENDCHAR
STARTCHAR Adieresis
ENCODING 196
SWIDTH 562 0
DWIDTH 18 0
BBX 17 29 0 0
BITMAP
00280A0000
007D1F4000
007D1F4000
0000000000
0001500000
002FFD0000
00B95F8000
02D002D000
034000F000
0700007400
0A00002C00
0D00001D00
0D00000E00
0C00000A00
1C00000B00
1C00000740
1C00000740
1C00000780
2EAA555B80
7FAAAFFFC0
2D000053C0
1D000003C0
1D000002C0
1D000002C0
1E000002C0
0E000003C0
0F000003C0
0B000007C0
0700000740
ENDCHAR
STARTCHAR Aring
ENCODING 197
SWIDTH 562 0
DWIDTH 18 0
BBX 17 30 0 0
BITMAP
0000400000
000BF00000
0028280000
00341C0000
0024280000
000BF00000
002FFD0000
00B95F8000
02D002D000
034000F000
0700007400
0A00002C00
0D00001D00
0D00000E00
0C00000A00
1C00000B00
1C00000740
1C00000740
1C00000780
2EAA555B80
7FAAAFFFC0
2D000053C0
1D000003C0
1D000002C0
1D000002C0
1E000002C0
0E000003C0
0F000003C0
0B000007C0
0700000740
ENDCHAR
STARTCHAR AE
ENCODING 198
SWIDTH 960 0
DWIDTH 31 0
BBX 30 25 0 0
BITMAP
0001500000000000
002FFD0000000000
00B95F8000000000
02D002D000000000
034000F000000000
07000074BEAAAA40
0A00002DFFFFFFD0
0D00001DE0000010
0D00000EE0000000
0C00000BE0000000
1C00000BE0000000
1C000007E0000000
1C000007E0006A80
1C000007FABFFE00
2EAA555BFEA95000
7FAAAFFFD0000000
2D000053D0000000
1D000003C0000000
1D000002C0000000
1D000002C0000000
1E000002C0000000
0E000003C0000000
0F000003E4556AA0
0B000007FFFFFFE0
070000075BFFA900
ENDCHAR
STARTCHAR Ccedilla
ENCODING 199
SWIDTH 515 0
DWIDTH 17 0
BBX 16 31 0 -10
BITMAP
00001A00
0002FF80
001FD780
007D0340
01E00600
03800000
0B000000
0D000000
28000000
34000000
74000000
70000000
70000000
74000000
74000000
38000000
2C000000
1E000014
0B905BFD
03FFFFA4
00BF9400
00700000
00700000
00380000
001FA400
0001AE00
00000B40
00500740
00780740
001FAE00
0006A400
ENDCHAR
STARTCHAR Egrave
ENCODING 200
SWIDTH 524 0
DWIDTH 17 0
BBX 15 26 0 0
BITMAP
00090000
000B8000
0002E000
0000B400
00000000
00000000
2AAAAA90
3FFFFFF8
3D400004
3C000000
3C000000
3C000000
3C000000
3C0016A0
3EABFFD0
7FFA9400
38000000
34000000
74000000
74000000
74000000
74000000
74000000
380056A8
2FFFFFFC
06FFFE90
ENDCHAR
STARTCHAR Eacute
ENCODING 201
SWIDTH 524 0
DWIDTH 17 0
BBX 15 26 0 0
BITMAP
00001000
0001B000
0007D000
001F0000
00280000
00100000
2AAAAA90
3FFFFFF8
3D400004
3C000000
3C000000
3C000000
3C000000
3C0016A0
3EABFFD0
7FFA9400
38000000
34000000
74000000
74000000
74000000
74000000
74000000
380056A8
2FFFFFFC
06FFFE90
ENDCHAR
STARTCHAR Ecircumflex
ENCODING 202
SWIDTH 524 0
DWIDTH 17 0
BBX 15 29 0 0
BITMAP
00004000
0001E000
0002F800
0007FD00
001F7F40
007D0F80
00B40380
00000000
00000000
2AAAAA90
3FFFFFF8
3D400004
3C000000
3C000000
3C000000
3C000000
3C0016A0
3EABFFD0
7FFA9400
38000000
34000000
74000000
74000000
74000000
74000000
74000000
380056A8
2FFFFFFC
06FFFE90
ENDCHAR
STARTCHAR Edieresis
ENCODING 203
SWIDTH 524 0
DWIDTH 17 0
BBX 15 25 0 0
BITMAP
00280900
00BD2F40
00BC2F00
00100400
00000000
2AAAAA90
3FFFFFF8
3D400004
3C000000
3C000000
3C000000
3C000000
3C0016A0
3EABFFD0
7FFA9400
38000000
34000000
74000000
74000000
74000000
74000000
74000000
380056A8
2FFFFFFC
06FFFE90
ENDCHAR
STARTCHAR Igrave
ENCODING 204
SWIDTH 167 0
DWIDTH 5 0
BBX 6 25 -1 0
BITMAP
6000
7D00
1F40
0780
0000
0000
0000
1400
1C00
1D00
0E00
0B00
0B00
0740
0380
0380
02C0
02C0
02D0
01D0
01D0
01E0
00E0
00E0
00A0
ENDCHAR
STARTCHAR Iacute
ENCODING 205
SWIDTH 167 0
DWIDTH 5 0
BBX 6 24 -1 0
BITMAP
0040
02C0
1F40
7D00
B000
4000
1400
1C00
1D00
0E00
0B00
0B00
0740
0380
0380
02C0
02C0
02D0
01D0
01D0
01E0
00E0
00E0
00A0
ENDCHAR
STARTCHAR Icircumflex
ENCODING 206
SWIDTH 167 0
DWIDTH 5 0
BBX 9 29 -2 0
BITMAP
005000
00F000
01F800
02FE00
0BAF80
2E0BC0
7802C0
000000
000000
000000
000000
050000
070000
074000
038000
02C000
02C000
01D000
00E000
00E000
00B000
00B000
00B400
007400
007400
007800
003800
003800
002800
ENDCHAR
STARTCHAR Idieresis
ENCODING 207
SWIDTH 167 0
DWIDTH 5 0
BBX 9 22 -4 0
BITMAP
190640
7E1F80
3E0F80
040100
005000
007000
007400
003800
002C00
002C00
001D00
000E00
000E00
000B00
000B00
000B40
000740
000740
000780
000380
000380
000280
ENDCHAR
STARTCHAR Eth
ENCODING 208
SWIDTH 741 0
DWIDTH 24 0
BBX 23 21 0 -1
BITMAP
06FFF9400000
7FEABFF40000
64003DBF4000
00002D07E000
00002D00BD00
00001E001F40
00000E0007C0
00000E0002E0
00001FAA40F0
0001FFFFD074
0002AB414038
000007400038
000007800038
000007800078
0000078000B4
0000078002F0
000003400BD0
000090007F80
0000FFABFD00
00006FFFE000
000001540000
ENDCHAR
STARTCHAR Ntilde
ENCODING 209
SWIDTH 609 0
DWIDTH 20 0
BBX 18 23 1 0
BITMAP
0014001000
00BF407400
01D1EAD000
02806F4000
0180000000
0000000000
B000000000
B000003400
B400003C00
7800003E00
7C00002F00
BD00000F40
BE00000780
BF400003C0
BF800001D0
B2C00001E0
E1E00001E0
E0B40001E0
E03D0002D0
F01F8007C0
F007F96F40
F001BFFD00
A0001A9000
ENDCHAR
STARTCHAR Ograve
ENCODING 210
SWIDTH 609 0
DWIDTH 20 0
BBX 19 23 0 0
BITMAP
0000900000
0000B80000
00002F0000
0000074000
0000000000
0000000000
0000000000
0015000000
02FFE40000
0B96BF8000
1E0007F400
3800007D00
7400001F40
70000003D0
70000001E0
74000000B0
3800000074
3C00000078
1E00000074
0B800001F0
03F8001BD0
00BFABFE00
001AFE9000
ENDCHAR
STARTCHAR Oacute
ENCODING 211
SWIDTH 609 0
DWIDTH 20 0
BBX 19 23 0 0
BITMAP
0000050000
00002D0000
0000B80000
0002E00000
0007400000
0001000000
0000000000
0015000000
02FFE40000
0B96BF8000
1E0007F400
3800007D00
7400001F40
70000003D0
70000001E0
74000000B0
3800000074
3C00000078
1E00000074
0B800001F0
03F8001BD0
00BFABFE00
001AFE9000
ENDCHAR
STARTCHAR Ocircumflex
ENCODING 212
SWIDTH 609 0
DWIDTH 20 0
BBX 19 25 0 0
BITMAP
0005000000
000B400000
000FC00000
002FF00000
00BAF80000
02F07D0000
07802D0000
0000000000
0000000000
0015000000
02FFE40000
0B96BF8000
1E0007F400
3800007D00
7400001F40
70000003D0
70000001E0
74000000B0
3800000074
3C00000078
1E00000074
0B800001F0
03F8001BD0
00BFABFE00
001AFE9000
ENDCHAR
STARTCHAR Otilde
ENCODING 213
SWIDTH 609 0
DWIDTH 20 0
BBX 19 22 0 0
BITMAP
0010000000
01FE01E000
0787EB8000
0700BE0000
0300000000
0000000000
0015000000
02FFE40000
0B96BF8000
1E0007F400
3800007D00
7400001F40
70000003D0
70000001E0
74000000B0
3800000074
3C00000078
1E00000074
0B800001F0
03F8001BD0
00BFABFE00
001AFE9000
ENDCHAR
STARTCHAR Odieresis
ENCODING 214
SWIDTH 609 0
DWIDTH 20 0
BBX 19 22 0 0
BITMAP
0006018000
001F87E000
000F83E000
0001004000
0000000000
0000000000
0015000000
02FFE40000
0B96BF8000
1E0007F400
3800007D00
7400001F40
70000003D0
70000001E0
74000000B0
3800000074
3C00000078
1E00000074
0B800001F0
03F8001BD0
00BFABFE00
001AFE9000
ENDCHAR
STARTCHAR multiply
ENCODING 215
SWIDTH 448 0
DWIDTH 14 0
BBX 10 9 1 2
BITMAP
100010
7C00F0
2F07D0
0BEF40
02F800
01FD00
07DF00
0F47C0
1D0240
ENDCHAR
STARTCHAR Oslash
ENCODING 216
SWIDTH 609 0
DWIDTH 20 0
BBX 19 24 0 -3
BITMAP
0000008000
000001C000
000002C000
0000038000
0000034000
00150B0000
02FFEF0000
0B96BF8000
1E002FF400
38003C7D00
7400781F40
7000B403D0
7000F001E0
7401E000B0
3802D00074
3C03C00078
1E0B800074
0BDF0001F0
03FE001BD0
00BFABFE00
007FFE9000
00B8000000
00F0000000
00E0000000
ENDCHAR
STARTCHAR Ugrave
ENCODING 217
SWIDTH 571 0
DWIDTH 18 0
BBX 17 23 1 0
BITMAP
0006000000
0003D00000
0001F40000
0000380000
0000000000
1400000000
7800009000
A00000E000
D00000F000
D00000F000
D00000F000
D00000F000
D00000B000
E000007400
A000003800
B000003C00
7400003D00
3800007E00
2C0001FF00
1E0007EF40
0BD16E0B80
03FFF40380
00BF800000
ENDCHAR
STARTCHAR Uacute
ENCODING 218
SWIDTH 571 0
DWIDTH 18 0
BBX 17 23 1 0
BITMAP
0000100000
0001E00000
0007C00000
001E000000
0038000000
1410000000
7800009000
A00000E000
D00000F000
D00000F000
D00000F000
D00000F000
D00000B000
E000007400
A000003800
B000003C00
7400003D00
3800007E00
2C0001FF00
1E0007EF40
0BD16E0B80
03FFF40380
00BF800000
ENDCHAR
STARTCHAR Ucircumflex
ENCODING 219
SWIDTH 571 0
DWIDTH 18 0
BBX 17 29 1 0
BITMAP
0000400000
0002D00000
0003F40000
0007FC0000
001F7F0000
007D1F4000
00F4074000
0000000000
0000000000
0000000000
0000000000
1400000000
7800009000
A00000E000
D00000F000
D00000F000
D00000F000
D00000F000
D00000B000
E000007400
A000003800
B000003C00
7400003D00
3800007E00
2C0001FF00
1E0007EF40
0BD16E0B80
03FFF40380
00BF800000
ENDCHAR
STARTCHAR Udieresis
ENCODING 220
SWIDTH 571 0
DWIDTH 18 0
BBX 17 22 1 0
BITMAP
0064190000
00BC3F0000
00BC2F0000
0010040000
1400000000
7800009000
A00000E000
D00000F000
D00000F000
D00000F000
D00000F000
D00000B000
E000007400
A000003800
B000003C00
7400003D00
3800007E00
2C0001FF00
1E0007EF40
0BD16E0B80
03FFF40380
00BF800000
ENDCHAR
STARTCHAR Yacute
ENCODING 221
SWIDTH 403 0
DWIDTH 13 0
BBX 13 28 0 -1
BITMAP
00001400
0000B400
0002E000
000B8000
001D0000
00040000
50000000
70000100
78000740
3D000740
1F000B00
0B800F00
02E02E00
00BE7D00
001FFC00
0002F400
0000F000
0001E000
0002D000
0002C000
00038000
00074000
00074000
000B0000
000B0000
000B0000
000B0000
00010000
ENDCHAR
STARTCHAR Thorn
ENCODING 222
SWIDTH 497 0
DWIDTH 16 0
BBX 15 25 1 -5
BITMAP
10000000
78000000
78000000
78000000
78000000
78000000
74000000
74000000
74000000
7AA94000
7FFFF400
3E01BE00
3C000BC0
3C0001E0
3C0000B0
3C000074
3E0000F4
3F9006F0
2EFEBFD0
2C6FF900
2C000000
2C000000
2C000000
2C000000
19000000
ENDCHAR
STARTCHAR germandbls
ENCODING 223
SWIDTH 590 0
DWIDTH 19 0
BBX 18 27 1 -4
BITMAP
0500000000
7FF9000000
BFFF900000
F801F40000
F0007C0000
F0002C0000
F400380000
B400B40000
B417E00000
747FC00000
787FE40000
3806FE0000
38001FD000
280001F400
2800002E00
2C00000B40
1C000003C0
1C000003D0
1C000003D0
1D00000BC0
1D0AAAFF40
1D0FFFA400
1D01000000
1E00000000
2E00000000
2E00000000
2E00000000
ENDCHAR
STARTCHAR agrave
ENCODING 224
SWIDTH 505 0
DWIDTH 16 0
BBX 16 21 0 0
BITMAP
00180000
001F4000
0007D000
0001E000
00000000
002F8000
007FF400
00507E00
00000B40
000003C0
000002E0
00AEA5F0
07FEBFF4
1F9007F8
3C0001FC
7400007C
7400001C
38000008
1F9456A9
07FFFFF8
006BFA40
ENDCHAR
STARTCHAR aacute
ENCODING 225
SWIDTH 505 0
DWIDTH 16 0
BBX 16 23 0 0
BITMAP
00001000
0001E000
0007C000
001E0000
00380000
00100000
00000000
002F8000
007FF400
00507E00
00000B40
000003C0
000002E0
00AEA5F0
07FEBFF4
1F9007F8
3C0001FC
7400007C
7400001C
38000008
1F9456A9
07FFFFF8
006BFA40
ENDCHAR
STARTCHAR acircumflex
ENCODING 226
SWIDTH 505 0
DWIDTH 16 0
BBX 16 24 0 0
BITMAP
00004000
0002D000
0003F400
000BFC00
001F7E00
00BC1F40
00F00740
00000000
002F8000
007FF400
00507E00
00000B40
000003C0
000002E0
00AEA5F0
07FEBFF4
1F9007F8
3C0001FC
7400007C
7400001C
38000008
1F9456A9
07FFFFF8
006BFA40
ENDCHAR
STARTCHAR atilde
ENCODING 227
SWIDTH 505 0
DWIDTH 16 0
BBX 16 23 0 0
BITMAP
00500040
02F902D0
0B4BAB40
0A01BD00
06000000
00000000
00000000
002F8000
007FF400
00507E00
00000B40
000003C0
000002E0
00AEA5F0
07FEBFF4
1F9007F8
3C0001FC
7400007C
7400001C
38000008
1F9456A9
07FFFFF8
006BFA40
ENDCHAR
STARTCHAR adieresis
ENCODING 228
SWIDTH 505 0
DWIDTH 16 0
BBX 16 21 0 0
BITMAP
00240900
00BD2F40
00BC2F00
00100400
00000000
002F8000
007FF400
00507E00
00000B40
000003C0
000002E0
00AEA5F0
07FEBFF4
1F9007F8
3C0001FC
7400007C
7400001C
38000008
1F9456A9
07FFFFF8
006BFA40
ENDCHAR
STARTCHAR aring
ENCODING 229
SWIDTH 505 0
DWIDTH 16 0
BBX 16 21 0 0
BITMAP
0006E000
00197400
00341C00
00241800
001EB400
002FD000
007FF400
00507E00
00000B40
000003C0
000002E0
00AEA5F0
07FEBFF4
1F9007F8
3C0001FC
7400007C
7400001C
38000008
1F9456A9
07FFFFF8
006BFA40
ENDCHAR
STARTCHAR ae
ENCODING 230
SWIDTH 881 0
DWIDTH 28 0
BBX 28 17 0 -1
BITMAP
002F80001A9000
007FF401BEF800
00507E07D02E00
00000B4B000F00
000003DD000B00
000002FC000B00
00AEA5F8002E00
07FEBFF801BC00
1F9007FAAFE000
3C0001FDBA0000
7400007C000000
7400002D000000
3800000E000000
1F9456AFD00000
07FFFFF9FE5559
006BFA406FFFF8
0000000005AA40
ENDCHAR
STARTCHAR ccedilla
ENCODING 231
SWIDTH 449 0
DWIDTH 14 0
BBX 14 24 0 -10
BITMAP
006FE000
02E5BC00
0B401D00
1D000900
3C000400
78000000
74000000
74000000
78000000
3C000000
2E000000
0F900000
07FFAA90
00BFFE80
00700000
00700000
00390000
001BE400
00006E00
00000B40
00A00740
007D0740
001FFD00
00019000
ENDCHAR
STARTCHAR egrave
ENCODING 232
SWIDTH 515 0
DWIDTH 17 0
BBX 15 22 0 0
BITMAP
00240000
002E0000
000B8000
0002C000
00000000
00064000
00BFF400
07D07C00
0F001E00
1D000E00
38000E00
38002D00
7401BC00
765BE000
76FE4000
78000000
3C000000
1D000000
0B400000
03F90014
00BFFFF8
000AFE80
ENDCHAR
STARTCHAR eacute
ENCODING 233
SWIDTH 515 0
DWIDTH 17 0
BBX 15 23 0 0
BITMAP
00005000
0002D000
000B8000
003D0000
00740000
00100000
00064000
00BFF400
07D07C00
0F001E00
1D000E00
38000E00
38002D00
7401BC00
765BE000
76FE4000
78000000
3C000000
1D000000
0B400000
03F90014
00BFFFF8
000AFE80
ENDCHAR
STARTCHAR ecircumflex
ENCODING 234
SWIDTH 515 0
DWIDTH 17 0
BBX 15 24 0 0
BITMAP
00004000
0001E000
0002F400
0007FD00
001F7F00
007D1F40
00F40780
00164000
00BFF400
07D07C00
0F001E00
1D000E00
38000E00
38002D00
7401BC00
765BE000
76FE4000
78000000
3C000000
1D000000
0B400000
03F90014
00BFFFF8
000AFE80
ENDCHAR
STARTCHAR edieresis
ENCODING 235
SWIDTH 515 0
DWIDTH 17 0
BBX 15 20 0 0
BITMAP
00A02800
01F87E00
01F47D00
00165000
00BFF400
07D07C00
0F001E00
1D000E00
38000E00
38002D00
7401BC00
765BE000
76FE4000
78000000
3C000000
1D000000
0B400000
03F90014
00BFFFF8
000AFE80
ENDCHAR
STARTCHAR igrave
ENCODING 236
SWIDTH 174 0
DWIDTH 6 0
BBX 5 19 0 0
BITMAP
7400
2E00
0B80
0240
0000
0D00
0D00
0E00
0E00
0E00
0F00
0F00
0B40
0B80
0B80
07C0
07C0
03C0
0280
ENDCHAR
STARTCHAR iacute
ENCODING 237
SWIDTH 174 0
DWIDTH 6 0
BBX 6 20 -1 0
BITMAP
0090
07D0
1F40
3C00
6000
0000
0340
0340
0380
0380
0380
03C0
03C0
02D0
02E0
02E0
01F0
01F0
00F0
00A0
ENDCHAR
STARTCHAR icircumflex
ENCODING 238
SWIDTH 174 0
DWIDTH 6 0
BBX 9 24 -2 0
BITMAP
005000
00F000
01FC00
02FE00
0BAF80
2E0BC0
7802C0
000000
000000
000000
00D000
00D000
00E000
00E000
00E000
00F000
00F000
00B400
00B800
00B800
007C00
007C00
003C00
002800
ENDCHAR
STARTCHAR idieresis
ENCODING 239
SWIDTH 174 0
DWIDTH 6 0
BBX 9 19 -2 0
BITMAP
180600
7E1F80
7D1F40
140500
000000
00D000
00D000
00E000
00E000
00E000
00F000
00F000
00B400
00B800
00B800
007C00
007C00
003C00
002800
ENDCHAR
STARTCHAR eth
ENCODING 240
SWIDTH 407 0
DWIDTH 13 0
BBX 13 18 0 -1
BITMAP
2E900000
7FF90000
106F4B80
0007FF80
006FF900
00FE7800
00602D00
00154E00
06FFFF00
1F406F40
2D000740
38000380
74000380
38000740
2E001F00
0FEABD00
02FFF400
00154000
ENDCHAR
STARTCHAR ntilde
ENCODING 241
SWIDTH 459 0
DWIDTH 15 0
BBX 13 21 1 0
BITMAP
04000400
7F802C00
E0BAF000
D01FC000
90000000
00000000
00000000
006F8000
46FFF000
FF40B800
FC003D00
F4001E00
F0000F00
F0000B40
F0000780
B40003C0
B80003C0
780003C0
3C0003C0
2C0003C0
09000380
ENDCHAR
STARTCHAR ograve
ENCODING 242
SWIDTH 487 0
DWIDTH 16 0
BBX 15 18 0 0
BITMAP
00090000
000B8000
0002F000
00007400
00000000
001BF900
01FFFF40
0BD01BD0
1E0001F0
380000B4
74000038
70000038
74000078
380001F4
2D0007F0
1F802FD0
07FFFE40
00AFE400
ENDCHAR
STARTCHAR oacute
ENCODING 243
SWIDTH 487 0
DWIDTH 16 0
BBX 15 20 0 0
BITMAP
00001000
0001E000
000B8000
002E0000
00380000
00100000
00000000
001BF900
01FFFF40
0BD01BD0
1E0001F0
380000B4
74000038
70000038
74000078
380001F4
2D0007F0
1F802FD0
07FFFE40
00AFE400
ENDCHAR
STARTCHAR ocircumflex
ENCODING 244
SWIDTH 487 0
DWIDTH 16 0
BBX 15 22 0 0
BITMAP
00010000
00038000
000BE000
000FF400
003DFD00
01F42E00
02D00F00
00000000
00000000
001BF900
01FFFF40
0BD01BD0
1E0001F0
380000B4
74000038
70000038
74000078
380001F4
2D0007F0
1F802FD0
07FFFE40
00AFE400
ENDCHAR
STARTCHAR otilde
ENCODING 245
SWIDTH 487 0
DWIDTH 16 0
BBX 15 18 0 0
BITMAP
00500040
02FD01D0
0747EB40
0B00BD00
06000000
001BF900
01FFFF40
0BD01BD0
1E0001F0
380000B4
74000038
70000038
74000078
380001F4
2D0007F0
1F802FD0
07FFFE40
00AFE400
ENDCHAR
STARTCHAR odieresis
ENCODING 246
SWIDTH 487 0
DWIDTH 16 0
BBX 15 17 0 0
BITMAP
00641900
01F87E00
00F83E00
00100400
001BF900
01FFFF40
0BD01BD0
1E0001F0
380000B4
74000038
70000038
74000078
380001F4
2D0007F0
1F802FD0
07FFFE40
00AFE400
ENDCHAR
STARTCHAR divide
ENCODING 247
SWIDTH 335 0
DWIDTH 11 0
BBX 9 9 1 2
BITMAP
018000
01D000
004000
156500
BFFF40
540100
000000
01C000
008000
ENDCHAR
STARTCHAR oslash
ENCODING 248
SWIDTH 487 0
DWIDTH 16 0
BBX 15 15 0 0
BITMAP
00000200
00005B00
006FFE00
02FEBF80
0B807FD0
2D00F1F0
3802D074
74078038
700F4038
742E0078
787801F4
2DF407E0
1FD02FD0
0FFAFE40
0EAFE400
ENDCHAR
STARTCHAR ugrave
ENCODING 249
SWIDTH 501 0
DWIDTH 16 0
BBX 16 22 0 0
BITMAP
00900000
007C0000
001F0000
00074000
00000000
00000000
00000000
24000000
74000040
B40002C0
B00002D0
740002D0
740002E0
780002E0
3C0002E0
2D0003E0
1E000BF0
0B401FF4
07D07878
01FFF02C
006F802D
0000001D
ENDCHAR
STARTCHAR uacute
ENCODING 250
SWIDTH 501 0
DWIDTH 16 0
BBX 16 22 0 0
BITMAP
00001000
0001E000
0007C000
001E0000
00380000
00100000
00000000
24000000
74000040
B40002C0
B00002D0
740002D0
740002E0
780002E0
3C0002E0
2D0003E0
1E000BF0
0B401FF4
07D07878
01FFF02C
006F802D
0000001D
ENDCHAR
STARTCHAR ucircumflex
ENCODING 251
SWIDTH 501 0
DWIDTH 16 0
BBX 16 24 0 0
BITMAP
00004000
0002D000
0003F400
000BFC00
001EBE00
00BC1F40
00E00740
00000000
00000000
24000000
74000040
B40002C0
B00002D0
740002D0
740002E0
780002E0
3C0002E0
2D0003E0
1E000BF0
0B401FF4
07D07878
01FFF02C
006F802D
0000001D
ENDCHAR
STARTCHAR udieresis
ENCODING 252
SWIDTH 501 0
DWIDTH 16 0
BBX 16 20 0 0
BITMAP
00A02400
02F4BD00
02F0BC00
00401000
00000000
24000000
74000040
B40002C0
B00002D0
740002D0
740002E0
780002E0
3C0002E0
2D0003E0
1E000BF0
0B401FF4
07D07878
01FFF02C
006F802D
0000001D
ENDCHAR
STARTCHAR yacute
ENCODING 253
SWIDTH 487 0
DWIDTH 16 0
BBX 15 38 0 -16
BITMAP
00001000
0001E000
000B8000
002E0000
00380000
00100000
00000000
00000000
20000090
700000A0
700000A0
700000B0
740000B4
380000B4
3C000074
2D000078
1E0000B8
0B4001F8
03C007FC
01F9BE7C
006FF41C
0005401C
0000001C
0000001C
0000001C
0000002C
0000002C
0000002C
00000038
00000038
00000074
28000074
1E0000B0
0F8000E0
03F402D0
00BE5B80
001FFF00
00016400
ENDCHAR
STARTCHAR thorn
ENCODING 254
SWIDTH 520 0
DWIDTH 17 0
BBX 15 22 1 -6
BITMAP
74000000
70000000
B0000000
B0000000
A06AA900
ABFFFF80
BF9007E0
B80000B4
B4000078
F400003C
F000003C
F90000B8
FFFAABF4
FBFFFF90
F0155400
F0000000
F0000000
F0000000
F0000000
F0000000
F0000000
B0000000
ENDCHAR
STARTCHAR ydieresis
ENCODING 255
SWIDTH 487 0
DWIDTH 16 0
BBX 15 35 0 -16
BITMAP
00A02800
02F4BD00
01F47D00
00401000
00000000
20000090
700000A0
700000A0
700000B0
740000B4
380000B4
3C000074
2D000078
1E0000B8
0B4001F8
03C007FC
01F9BE7C
006FF41C
0005401C
0000001C
0000001C
0000001C
0000002C
0000002C
0000002C
00000038
00000038
00000074
28000074
1E0000B0
0F8000E0
03F402D0
00BE5B80
001FFF00
00016400
ENDCHAR
STARTCHAR Amacron
ENCODING 256
SWIDTH 562 0
DWIDTH 18 0
BBX 17 29 0 0
BITMAP
0001540000
00BFFE0000
00FAAA0000
0000000000
0001500000
002FFD0000
00B95F8000
02D002D000
034000F000
0700007400
0A00002C00
0D00001D00
0D00000E00
0C00000A00
1C00000B00
1C00000740
1C00000740
1C00000780
2EAA555B80
7FAAAFFFC0
2D000053C0
1D000003C0
1D000002C0
1D000002C0
1E000002C0
0E000003C0
0F000003C0
0B000007C0
0700000740
ENDCHAR
STARTCHAR amacron
ENCODING 257
SWIDTH 505 0
DWIDTH 16 0
BBX 16 22 0 0
BITMAP
00015000
00BFFE00
01FAAA00
00000000
00000000
00000000
002F8000
007FF400
00507E00
00000B40
000003C0
000002E0
00AEA5F0
07FEBFF4
1F9007F8
3C0001FC
7400007C
7400001C
38000008
1F9456A9
07FFFFF8
006BFA40
ENDCHAR
STARTCHAR Abreve
ENCODING 258
SWIDTH 562 0
DWIDTH 18 0
BBX 17 30 0 0
BITMAP
0008070000
000A5A0000
0002F80000
0000000000
0000000000
0001500000
002FFD0000
00B95F8000
02D002D000
034000F000
0700007400
0A00002C00
0D00001D00
0D00000E00
0C00000A00
1C00000B00
1C00000740
1C00000740
1C00000780
2EAA555B80
7FAAAFFFC0
2D000053C0
1D000003C0
1D000002C0
1D000002C0
1E000002C0
0E000003C0
0F000003C0
0B000007C0
0700000740
ENDCHAR
STARTCHAR abreve
ENCODING 259
SWIDTH 505 0
DWIDTH 16 0
BBX 16 21 0 0
BITMAP
00503400
0075B400
001FD000
00000000
00000000
002F8000
007FF400
00507E00
00000B40
000003C0
000002E0
00AEA5F0
07FEBFF4
1F9007F8
3C0001FC
7400007C
7400001C
38000008
1F9456A9
07FFFFF8
006BFA40
ENDCHAR
STARTCHAR Aogonek
ENCODING 260
SWIDTH 562 0
DWIDTH 18 0
BBX 18 30 0 -5
BITMAP
0001500000
002FFD0000
00B95F8000
02D002D000
034000F000
0700007400
0A00002C00
0D00001D00
0D00000E00
0C00000A00
1C00000B00
1C00000740
1C00000740
1C00000780
2EAA555B80
7FAAAFFFC0
2D000053C0
1D000003C0
1D000002C0
1D000002C0
1E000002C0
0E000003C0
0F000003C0
0B000007C0
0700006F40
000000F400
000001D000
000001E000
000000BE90
0000001590
ENDCHAR
STARTCHAR aogonek
ENCODING 261
SWIDTH 505 0
DWIDTH 16 0
BBX 16 20 0 -4
BITMAP
002F8000
007FF400
00507E00
00000B40
000003C0
000002E0
00AEA5F0
07FEBFF4
1F9007F8
3C0001FC
7400007C
7400001C
38000008
1F9456A9
07FFFFF8
006BFE40
00003800
00007800
00003E54
000006A8
ENDCHAR
STARTCHAR Cacute
ENCODING 262
SWIDTH 515 0
DWIDTH 17 0
BBX 16 27 0 0
BITMAP
00000500
00001D00
0000B800
0002E000
00074000
00010000
00001A00
0002FF80
001FD780
007D0340
01E00600
03800000
0B000000
0D000000
28000000
34000000
74000000
70000000
70000000
74000000
74000000
38000000
2C000000
1E000014
0B905BFD
03FFFFA4
00BF9400
ENDCHAR
STARTCHAR cacute
ENCODING 263
SWIDTH 449 0
DWIDTH 14 0
BBX 14 21 0 0
BITMAP
00001000
0000B000
0007D000
001F4000
002D0000
00100000
00000000
006FE000
02FABC00
0B401D00
1E000900
3C000400
78000000
74000000
74000000
78000000
3C000000
2E000000
0F900000
07FFAA90
006FFE80
ENDCHAR
STARTCHAR Ccircumflex
ENCODING 264
SWIDTH 515 0
DWIDTH 17 0
BBX 16 29 0 0
BITMAP
00004000
0001E000
0002F400
0007FD00
001F7F00
007D1F40
00F40780
00000000
00001A00
0002FF80
001FD780
007D0340
01E00600
03800000
0B000000
0D000000
28000000
34000000
74000000
70000000
70000000
74000000
74000000
38000000
2C000000
1E000014
0B905BFD
03FFFFA4
00BF9400
ENDCHAR
STARTCHAR ccircumflex
ENCODING 265
SWIDTH 449 0
DWIDTH 14 0
BBX 14 24 0 0
BITMAP
00010000
000B8000
000FD000
001FF400
007DFC00
01F47D00
03D01D00
00000000
00000000
00000000
006FE000
02FABC00
0B401D00
1E000900
3C000400
78000000
74000000
74000000
78000000
3C000000
2E000000
0F900000
07FFAA90
006FFE80
ENDCHAR
STARTCHAR Cdotaccent
ENCODING 266
SWIDTH 515 0
DWIDTH 17 0
BBX 16 25 0 0
BITMAP
00018000
0001E000
0001E000
00004000
00001A00
0002FF80
001FD780
007D0340
01E00600
03800000
0B000000
0D000000
28000000
34000000
74000000
70000000
70000000
74000000
74000000
38000000
2C000000
1E000014
0B905BFD
03FFFFA4
00BF9400
ENDCHAR
STARTCHAR cdotaccent
ENCODING 267
SWIDTH 449 0
DWIDTH 14 0
BBX 14 18 0 0
BITMAP
00090000
000F0000
000B0000
00000000
006FE000
02FABC00
0B401D00
1E000900
3C000400
78000000
74000000
74000000
78000000
3C000000
2E000000
0F900000
07FFAA90
006FFE80
ENDCHAR
STARTCHAR Ccaron
ENCODING 268
SWIDTH 515 0
DWIDTH 17 0
BBX 16 27 0 0
BITMAP
00040050
001B82E0
0001FF80
00007D00
00001000
00000000
00001A00
0002FF80
001FD780
007D0340
01E00600
03800000
0B000000
0D000000
28000000
34000000
74000000
70000000
70000000
74000000
74000000
38000000
2C000000
1E000014
0B905BFD
03FFFFA4
00BF9400
ENDCHAR
STARTCHAR ccaron
ENCODING 269
SWIDTH 449 0
DWIDTH 14 0
BBX 14 20 0 0
BITMAP
01400400
01E47D00
002FF400
000B8000
00010000
00000000
006FE000
02FABC00
0B401D00
1E000900
3C000400
78000000
74000000
74000000
78000000
3C000000
2E000000
0F900000
07FFAA90
006FFE80
ENDCHAR
STARTCHAR Dcaron
ENCODING 270
SWIDTH 741 0
DWIDTH 24 0
BBX 23 26 0 -1
BITMAP
000040010000
0000B82F0000
00001FFD0000
000003E00000
000001400000
06FFF9400000
7FEABFF40000
64003DBF4000
00002D07E000
00001D00BD00
00000E001F40
00000E0007C0
00000B0002E0
00000B0000F0
00000B400074
00000B400038
000007400038
000007800038
000007800078
0000078000B4
0000078002F0
000003400BD0
000090007F80
0000FFABFD00
00006FFFE000
000001540000
ENDCHAR
STARTCHAR dcaron
ENCODING 271
SWIDTH 582 0
DWIDTH 19 0
BBX 18 24 0 0
BITMAP
00000000D0
00000600E0
00000B80E0
000007C0F0
000003D0F0
000003E0B0
000002F070
000001F410
000000F400
000000F800
01BE40B800
07FFE4BC00
1FE5BEBC00
2F001BFC00
3D0002FC00
7C0000BD00
780000BD00
780000FD00
780002FD00
3C000BFE00
2E002F1E00
0F45FD0F00
07FFE00600
01FE400000
ENDCHAR
STARTCHAR Dcroat
ENCODING 272
SWIDTH 741 0
DWIDTH 24 0
BBX 23 21 0 -1
BITMAP
06FFF9400000
7FEABFF40000
64003EBF4000
00002D07E000
00001D00BD00
00000E001F40
00000E0007C0
00000A0002E0
00000B0000F0
0001AFF40074
0007FFFC0038
000147400038
000007800038
000007800078
0000078000B4
0000078002F0
000003400BD0
000090007F80
0000FFABFD00
00006FFFE000
000001540000
ENDCHAR
STARTCHAR dcroat
ENCODING 273
SWIDTH 524 0
DWIDTH 17 0
BBX 17 23 0 0
BITMAP
0000070000
00000B8000
000007D000
000003E000
0000ABFF40
0003FFFFC0
000651F400
000000F400
005400B800
02FF90B800
0BFFF8BC00
1F906FBC00
2E0007FC00
3C0001FD00
780000BD00
780000BD00
780001FD00
780002FD00
3C000BFE00
2E002F1E00
0F46FD0F00
07FFE00600
01FE400000
ENDCHAR
STARTCHAR Emacron
ENCODING 274
SWIDTH 524 0
DWIDTH 17 0
BBX 15 25 0 0
BITMAP
00015400
007FFF00
00FEAA00
00400000
00000000
2AAAAA90
3FFFFFF8
3D400004
3C000000
3C000000
3C000000
3C000000
3C0016A0
3EABFFD0
7FFA9400
38000000
34000000
74000000
74000000
74000000
74000000
74000000
380056A8
2FFFFFFC
06FFFE90
ENDCHAR
STARTCHAR emacron
ENCODING 275
SWIDTH 515 0
DWIDTH 17 0
BBX 15 22 0 0
BITMAP
00015400
007FFF00
00FEAA00
00000000
00000000
00064000
00BFF400
07D07C00
0F001E00
1D000E00
38000E00
38002D00
7401BC00
765BE000
76FE4000
78000000
3C000000
1D000000
0B400000
03F90014
00BFFFF8
000AFE80
ENDCHAR
STARTCHAR Ebreve
ENCODING 276
SWIDTH 524 0
DWIDTH 17 0
BBX 15 25 0 0
BITMAP
00201C00
00296800
000BE000
00000000
00000000
2AAAAA90
3FFFFFF8
3D400004
3C000000
3C000000
3C000000
3C000000
3C0016A0
3EABFFD0
7FFA9400
38000000
34000000
74000000
74000000
74000000
74000000
74000000
380056A8
2FFFFFFC
06FFFE90
ENDCHAR
STARTCHAR ebreve
ENCODING 277
SWIDTH 515 0
DWIDTH 17 0
BBX 15 22 0 0
BITMAP
00080600
000A5E00
0006F800
00000000
00000000
00064000
00BFF400
07D07C00
0F001E00
1D000E00
38000E00
38002D00
7401BC00
765BE000
76FE4000
78000000
3C000000
1D000000
0B400000
03F90014
00BFFFF8
000AFE80
ENDCHAR
STARTCHAR Edotaccent
ENCODING 278
SWIDTH 524 0
DWIDTH 17 0
BBX 15 25 0 0
BITMAP
00024000
00038000
00038000
00000000
00000000
2AAAAA90
3FFFFFF8
3D400004
3C000000
3C000000
3C000000
3C000000
3C0016A0
3EABFFD0
7FFA9400
38000000
34000000
74000000
74000000
74000000
74000000
74000000
380056A8
2FFFFFFC
06FFFE90
ENDCHAR
STARTCHAR edotaccent
ENCODING 279
SWIDTH 515 0
DWIDTH 17 0
BBX 15 22 0 0
BITMAP
00090000
000F0000
000B0000
00000000
00000000
00064000
00BFF400
07D07C00
0F001E00
1D000E00
38000E00
38002D00
7401BC00
765BE000
76FE4000
78000000
3C000000
1D000000
0B400000
03F90014
00BFFFF8
000AFE80
ENDCHAR
STARTCHAR Eogonek
ENCODING 280
SWIDTH 524 0
DWIDTH 17 0
BBX 15 25 0 -5
BITMAP
2AAAAA90
3FFFFFF8
3D400004
3C000000
3C000000
3C000000
3C000000
3C0016A0
3EABFFD0
7FFA9400
38000000
34000000
74000000
74000000
74000000
74000000
74000000
380056A8
2FFFFFFC
06FFFF90
00007800
0000B000
0000B400
00007EA4
000005A0
ENDCHAR
STARTCHAR eogonek
ENCODING 281
SWIDTH 515 0
DWIDTH 17 0
BBX 15 22 0 -5
BITMAP
00064000
00BFF400
07D07C00
0F001E00
1D000E00
38000E00
38002D00
7401BC00
765BE000
76FE4000
78000000
3C000000
1D000000
0B400000
03F90014
00BFFFF8
000AFF80
0000B400
0000E000
0000F000
00007EA0
00000550
ENDCHAR
STARTCHAR Ecaron
ENCODING 282
SWIDTH 524 0
DWIDTH 17 0
BBX 15 25 0 0
BITMAP
00500140
007D1B80
0007FE00
0001F400
00004000
2AAAAA90
3FFFFFF8
3D400004
3C000000
3C000000
3C000000
3C000000
3C0016A0
3EABFFD0
7FFA9400
38000000
34000000
74000000
74000000
74000000
74000000
74000000
380056A8
2FFFFFFC
06FFFE90
ENDCHAR
STARTCHAR ecaron
ENCODING 283
SWIDTH 515 0
DWIDTH 17 0
BBX 15 23 0 0
BITMAP
00500140
007D1F40
000BFD00
0002E400
00004000
00000000
00064000
00BFF400
07D07C00
0F001E00
1D000E00
38000E00
38002D00
7401BC00
765BE000
76FE4000
78000000
3C000000
1D000000
0B400000
03F90014
00BFFFF8
000AFE80
ENDCHAR
STARTCHAR Gcircumflex
ENCODING 284
SWIDTH 571 0
DWIDTH 18 0
BBX 17 28 1 -2
BITMAP
0000050000
00000F0000
00001F8000
00002FE000
0000BAF400
0002E0BC00
0007802C00
0000000000
0000000000
000006A400
0001BFFD00
000BE41900
007D000000
02E0000000
0B80000000
1E00000000
3801401000
B403FFFD00
B001AAAE00
E000000A00
E000000E00
A000000E00
7800002E00
2E4006FE00
0BFFFEAE00
01AA500E00
0000000F40
0000000780
ENDCHAR
STARTCHAR gcircumflex
ENCODING 285
SWIDTH 366 0
DWIDTH 12 0
BBX 17 40 -5 -16
BITMAP
0000050000
00000B4000
00000FC000
00002FE000
0000BAF800
0002E0BC00
0007802D00
0000000000
0000000000
0000000000
0000000000
00001BE000
00007EB800
0001E02C00
0003801D00
000B401E00
000E001F00
001D001F00
001D001F00
001E002F40
000F40BF40
0007EBFF40
0001FF9F40
0000140F40
0000000B40
0000000B40
0000000740
0000000780
0000000380
0000000380
0000000380
2400000380
7400000780
3800000740
2D00000B40
0F90000F00
02F9002E00
007FE9BD00
0006FFF400
00001A9000
ENDCHAR
STARTCHAR Gbreve
ENCODING 286
SWIDTH 571 0
DWIDTH 18 0
BBX 17 23 1 -2
BITMAP
00101C0000
0029680000
000BE00000
0000000000
000006A400
0001BFFD00
000BE41900
007D000000
02E0000000
0B80000000
1E00000000
3801401000
B403FFFD00
B001AAAE00
E000000A00
E000000E00
A000000E00
7800002E00
2E4006FE00
0BFFFEAE00
01AA500E00
0000000F40
0000000780
ENDCHAR
STARTCHAR gbreve
ENCODING 287
SWIDTH 366 0
DWIDTH 12 0
BBX 17 34 -5 -16
BITMAP
000080A000
0000E5D000
00007F8000
0000000000
0000000000
00001BE000
00007EB800
0001E02C00
0003801D00
000B401E00
000E001F00
001D001F00
001D001F00
001E002F40
000F40BF40
0007EBFF40
0001FF9F40
0000140F40
0000000B40
0000000B40
0000000740
0000000780
0000000380
0000000380
0000000380
2400000380
7400000780
3800000740
2D00000B40
0F90000F00
02F9002E00
007FE9BD00
0006FFF400
00001A9000
ENDCHAR
STARTCHAR Gdotaccent
ENCODING 288
SWIDTH 571 0
DWIDTH 18 0
BBX 17 23 1 -2
BITMAP
0000140000
00003C0000
00002C0000
0000040000
000006A400
0001BFFD00
000BE41900
007D000000
02E0000000
0B80000000
1E00000000
3801401000
B403FFFD00
B001AAAE00
E000000A00
E000000E00
A000000E00
7800002E00
2E4006FE00
0BFFFEAE00
01AA500E00
0000000F40
0000000780
ENDCHAR
STARTCHAR gdotaccent
ENCODING 289
SWIDTH 366 0
DWIDTH 12 0
BBX 17 34 -5 -16
BITMAP
0000080000
00001E0000
00000E0000
0000000000
0000000000
00001BE000
00007EB800
0001E02C00
0003801D00
000B401E00
000E001F00
001D001F00
001D001F00
001E002F40
000F40BF40
0007EBFF40
0001FF9F40
0000140F40
0000000B40
0000000B40
0000000740
0000000780
0000000380
0000000380
0000000380
2400000380
7400000780
3800000740
2D00000B40
0F90000F00
02F9002E00
007FE9BD00
0006FFF400
00001A9000
ENDCHAR
STARTCHAR Gcommaaccent
ENCODING 290
SWIDTH 571 0
DWIDTH 18 0
BBX 17 27 1 -10
BITMAP
000006A400
0001BFFD00
000BE41900
007D000000
02E0000000
0B80000000
1E00000000
3801401000
B403FFFD00
B001AAAE00
E000000A00
E000000E00
A000000E00
7800002E00
2E4006FE00
0BFFFEAE00
01AA500E00
0000000F40
0000000780
0000000000
0002800000
0003C00000
0002D00000
0002D00000
0002D00000
0007C00000
0007400000
ENDCHAR
STARTCHAR gcommaaccent
ENCODING 291
SWIDTH 366 0
DWIDTH 12 0
BBX 17 44 -5 -16
BITMAP
00000C0000
00000D0000
00000E0000
00000E0000
00000F0000
00000B0000
0000070000
0000010000
0000000000
0000000000
0000000000
0000000000
0000000000
0000000000
0000000000
00001BE000
00007EB800
0001E02C00
0003801D00
000B401E00
000E001F00
001D001F00
001D001F00
001E002F40
000F40BF40
0007EBFF40
0001FF9F40
0000140F40
0000000B40
0000000B40
0000000740
0000000780
0000000380
0000000380
0000000380
2400000380
7400000780
3800000740
2D00000B40
0F90000F00
02F9002E00
007FE9BD00
0006FFF400
00001A9000
ENDCHAR
STARTCHAR Hcircumflex
ENCODING 292
SWIDTH 524 0
DWIDTH 17 0
BBX 16 31 0 0
BITMAP
00004000
0001E000
0002F400
0007FD00
001F7F00
007D1F80
00F40780
00000000
00000000
00000008
24000028
24000028
28000038
28000038
2C000038
2C000038
2C000038
1D000038
1D0002F8
1D002FF8
1E02FD3C
1E6F902C
1FF9002C
7F90002C
1F40002C
0B40002D
0B40002D
0740001D
0740001E
0740000E
0200000A
ENDCHAR
STARTCHAR hcircumflex
ENCODING 293
SWIDTH 427 0
DWIDTH 14 0
BBX 14 26 -1 0
BITMAP
00004000
0001E000
0002F400
1007FD00
741F7F00
787D1F40
3CF40780
2D000000
1D000000
1E000000
0E000000
0F054000
0BBFF400
0BFFFD00
07D01E00
07400740
07400380
074002C0
038001D0
038001D0
038001D0
03C001E0
03C002D0
02C002D0
02D002D0
01C00280
ENDCHAR
STARTCHAR hbar
ENCODING 295
SWIDTH 427 0
DWIDTH 14 0
BBX 16 23 -3 0
BITMAP
01000000
07400000
07800000
03C00000
02D00000
1BFE4000
7FFF8000
65E10000
00F05400
00BBFF40
00BFFFD0
007D01E0
00740074
00740038
0074002C
0038001D
0038001D
0038001D
003C001E
003C002D
002C002D
002D002D
001C0028
ENDCHAR
STARTCHAR Itilde
ENCODING 296
SWIDTH 167 0
DWIDTH 5 0
BBX 12 23 -3 0
BITMAP
050004
2FD01D
747AB4
B01BD0
600000
014000
01C000
01D000
00E000
00B000
00B000
007400
003800
003800
002C00
002C00
002D00
001D00
001D00
001E00
000E00
000E00
000A00
ENDCHAR
STARTCHAR itilde
ENCODING 297
SWIDTH 174 0
DWIDTH 6 0
BBX 12 21 -2 0
BITMAP
1F8009
79B478
B02FE0
600140
100000
000000
000000
00D000
00D000
00E000
00E000
00E000
00F000
00F000
00B400
00B800
00B800
007C00
007C00
003C00
002800
ENDCHAR
STARTCHAR imacron
ENCODING 299
SWIDTH 174 0
DWIDTH 6 0
BBX 9 20 -2 0
BITMAP
015400
2FFF80
7EAA80
000000
000000
000000
00D000
00D000
00E000
00E000
00E000
00F000
00F000
00B400
00B800
00B800
007C00
007C00
003C00
002800
ENDCHAR
STARTCHAR Ibreve
ENCODING 300
SWIDTH 167 0
DWIDTH 5 0
BBX 6 24 0 0
BITMAP
8070
A5A0
2F80
0000
0000
0000
5000
7000
7400
3800
2C00
2C00
1D00
0E00
0E00
0B00
0B00
0B40
0740
0740
0780
0380
0380
0280
ENDCHAR
STARTCHAR ibreve
ENCODING 301
SWIDTH 174 0
DWIDTH 6 0
BBX 7 20 -1 0
BITMAP
0010
6034
3AE0
1A80
0000
0000
0340
0340
0380
0380
0380
03C0
03C0
02D0
02E0
02E0
01F0
01F0
00F0
00A0
ENDCHAR
STARTCHAR Iogonek
ENCODING 302
SWIDTH 167 0
DWIDTH 5 0
BBX 6 23 0 -5
BITMAP
5000
7000
7400
3800
2C00
2C00
1D00
0E00
0E00
0B00
0B00
0B40
0B40
0740
0780
0780
0780
2F80
B800
E000
F000
7EA0
05A0
ENDCHAR
STARTCHAR iogonek
ENCODING 303
SWIDTH 174 0
DWIDTH 6 0
BBX 7 24 -1 -5
BITMAP
2D00
1900
0000
0000
0000
0340
0340
0380
0380
0380
03C0
03C0
02D0
02E0
02E0
01F0
01F0
01F0
1BE0
3D00
7400
7400
3E94
06A4
ENDCHAR
STARTCHAR Idotaccent
ENCODING 304
SWIDTH 167 0
DWIDTH 5 0
BBX 6 24 -1 0
BITMAP
2400
7800
3800
0000
0000
0000
1400
1C00
1D00
0E00
0B00
0B00
0740
0380
0380
02C0
02C0
02D0
01D0
01D0
01E0
00E0
00E0
00A0
ENDCHAR
STARTCHAR dotlessi
ENCODING 305
SWIDTH 174 0
DWIDTH 6 0
BBX 3 14 2 0
BITMAP
D0
D0
E0
E0
E0
F0
F0
B4
B8
B8
7C
7C
3C
28
ENDCHAR
STARTCHAR Jcircumflex
ENCODING 308
SWIDTH 439 0
DWIDTH 14 0
BBX 15 31 0 0
BITMAP
00000400
00001E00
00002F80
00003FD0
0000F7F4
0007D0F8
000B4038
00000000
00000400
00000D00
00000A00
00000B00
00000B40
00000740
00000780
00000380
000003C0
000002C0
000002C0
000002D0
340001D0
740001D0
380001D0
2D0001D0
0A0001D0
038001D0
01E001D0
007802C0
001F4380
0002FF40
00007E00
ENDCHAR
STARTCHAR jcircumflex
ENCODING 309
SWIDTH 200 0
DWIDTH 6 0
BBX 12 39 -4 -15
BITMAP
000100
000780
000FD0
001FF4
007DFC
01F47D
03D01E
000000
000000
000000
000000
000500
000700
000740
000780
0003C0
0003D0
0002D0
0002E0
0001F0
0001F0
0000F4
0000B4
0000B8
000078
000078
00003C
50003C
B0003C
74002C
3C002C
2D002C
1F002C
0B802C
03D02C
00F97C
002FF8
0007F4
000040
ENDCHAR
STARTCHAR Kcommaaccent
ENCODING 310
SWIDTH 468 0
DWIDTH 15 0
BBX 14 29 0 -10
BITMAP
10001800
7000B400
7402E000
740B8000
342E0000
38780000
29F00000
2FC00000
2F400000
1E000000
1F800000
1FD00000
1DF80000
1D7E0000
1D0BD000
1D01F800
1E002F40
0E0007E0
0A0000B0
00000000
00000000
00000000
00060000
000B4000
00078000
00078000
00078000
000F4000
000E0000
ENDCHAR
STARTCHAR kcommaaccent
ENCODING 311
SWIDTH 403 0
DWIDTH 13 0
BBX 13 30 0 -10
BITMAP
40000000
D0000000
E0000000
B0000000
B0000000
74001000
7801F000
3803D000
2C0B4000
2C1D0000
1D740000
1FE00000
1FC00000
1F800000
0F800000
0FD00000
1FF90000
1E2FE500
1D06FF80
1D006A40
00000000
00000000
00000000
00180000
003D0000
001E0000
001E0000
001D0000
003D0000
00380000
ENDCHAR
STARTCHAR Lacute
ENCODING 313
SWIDTH 346 0
DWIDTH 11 0
BBX 11 24 0 0
BITMAP
000050
0002D0
000B80
002E00
007400
001000
000000
0D0000
1D0000
2D0000
2D0000
3C0000
3C0000
3C0000
380000
780000
740000
740000
740000
740000
780000
3E5000
1FFFF4
02FFF4
ENDCHAR
STARTCHAR lacute
ENCODING 314
SWIDTH 120 0
DWIDTH 4 0
BBX 6 25 -1 0
BITMAP
0040
02D0
0F40
3D00
7400
1000
0000
0D00
0E00
0E00
0E00
0E00
0F00
0F00
0F00
1F00
1F00
0F00
0F00
0F00
0F00
0F00
0F00
0E00
0A00
ENDCHAR
STARTCHAR Lcommaaccent
ENCODING 315
SWIDTH 346 0
DWIDTH 11 0
BBX 11 27 0 -10
BITMAP
0D0000
1D0000
2D0000
2D0000
3C0000
3C0000
3C0000
380000
780000
740000
740000
740000
740000
780000
3E5000
1FFFF4
02FFF4
000000
000000
000000
006000
00B800
007800
003800
007800
00B400
00A000
ENDCHAR
STARTCHAR lcommaaccent
ENCODING 316
SWIDTH 120 0
DWIDTH 4 0
BBX 3 28 0 -10
BITMAP
34
38
38
38
38
3C
3C
3C
7C
7C
3C
3C
3C
3C
3C
3C
38
28
00
00
00
24
7C
3C
2C
3C
78
74
ENDCHAR
STARTCHAR Lcaron
ENCODING 317
SWIDTH 346 0
DWIDTH 11 0
BBX 11 22 0 0
BITMAP
001800
001C00
001D00
001D00
001E00
0D0E00
1D0E00
2D0100
2D0000
3C0000
3C0000
3C0000
380000
780000
740000
740000
740000
740000
780000
3E5000
1FFFF4
02FFF4
ENDCHAR
STARTCHAR lcaron
ENCODING 318
SWIDTH 222 0
DWIDTH 7 0
BBX 7 23 0 0
BITMAP
00A0
00B0
00B4
0074
0078
3478
3838
3814
3800
3800
3C00
3C00
3C00
7C00
7C00
3C00
3C00
3C00
3C00
3C00
3C00
3800
2800
ENDCHAR
STARTCHAR Ldot
ENCODING 319
SWIDTH 346 0
DWIDTH 11 0
BBX 11 17 0 0
BITMAP
0D0000
1D0000
2D0000
2D0000
3C0000
3C0000
3C0000
381000
78BC00
75FD00
74FC00
741000
740000
780000
3E5000
1FFFF4
02FFF4
ENDCHAR
STARTCHAR ldot
ENCODING 320
SWIDTH 333 0
DWIDTH 11 0
BBX 10 18 0 0
BITMAP
340000
380000
380000
380000
380000
3C0000
3C0000
3C0000
7C0100
7C0F80
3C2FD0
3C1F80
3C0100
3C0000
3C0000
3C0000
380000
280000
ENDCHAR
STARTCHAR Lslash
ENCODING 321
SWIDTH 346 0
DWIDTH 11 0
BBX 12 17 0 0
BITMAP
028000
038000
078000
078000
078000
0B4000
0B4000
0B5000
0BF400
0FE000
7F8000
7E0000
0F0000
0B4000
07E954
01FFFF
001AA9
ENDCHAR
STARTCHAR lslash
ENCODING 322
SWIDTH 120 0
DWIDTH 4 0
BBX 8 19 -2 0
BITMAP
0240
02C0
02C0
02C0
02C0
03C0
03C4
03ED
03FD
0BD0
7FD0
F7D0
43D0
02D0
02D0
02D0
02C0
01C0
0140
ENDCHAR
STARTCHAR Nacute
ENCODING 323
SWIDTH 609 0
DWIDTH 20 0
BBX 18 23 1 0
BITMAP
0000140000
0000B40000
0002E00000
000B800000
001D000000
0004000000
B000000000
B000003400
B400003C00
7800003E00
7C00002F00
BD00000F40
BE00000780
BF400003C0
BF800001D0
B2C00001E0
E1E00001E0
E0B40001E0
E03D0002D0
F01F8007C0
F007F96F40
F001BFFD00
A0001A9000
ENDCHAR
STARTCHAR nacute
ENCODING 324
SWIDTH 459 0
DWIDTH 15 0
BBX 13 22 1 0
BITMAP
00010000
001E0000
00B80000
02E00000
03800000
01000000
00000000
00000000
006F8000
46FFF000
FF40B800
FC003D00
F4001E00
F0000F00
F0000B40
F0000780
B40003C0
B80003C0
780003C0
3C0003C0
2C0003C0
09000380
ENDCHAR
STARTCHAR Ncommaaccent
ENCODING 325
SWIDTH 609 0
DWIDTH 20 0
BBX 18 27 1 -10
BITMAP
B000000000
B000003400
B400003C00
7800003E00
7C00002F00
BD00000F40
BE00000780
BF400003C0
BF800001D0
B2C00001E0
E1E00001E0
E0B40001E0
E03D0002D0
F01F8007C0
F007F96F40
F001BFFD00
A0001A9000
0000000000
0000000000
0000000000
0000900000
0001E00000
0000F00000
0000F00000
0000E00000
0002E00000
0002C00000
ENDCHAR
STARTCHAR ncommaaccent
ENCODING 326
SWIDTH 459 0
DWIDTH 15 0
BBX 13 24 1 -10
BITMAP
006F8000
46FFF000
FF40B800
FC003D00
F4001E00
F0000F00
F0000B40
F0000780
B40003C0
B80003C0
780003C0
3C0003C0
2C0003C0
09000380
00000000
00000000
00000000
00180000
003D0000
002D0000
001D0000
002D0000
003C0000
00380000
ENDCHAR
STARTCHAR Ncaron
ENCODING 327
SWIDTH 609 0
DWIDTH 20 0
BBX 18 25 1 0
BITMAP
0010014000
006E0BC000
0007FE0000
0000F40000
0000400000
0000000000
0000000000
0000000000
B000000000
B000003400
B400003C00
7800003E00
7C00002F00
BD00000F40
BE00000780
BF400003C0
BF800001D0
B2C00001E0
E1E00001E0
E0B40001E0
E03D0002D0
F01F8007C0
F007F96F40
F001BFFD00
A0001A9000
ENDCHAR
STARTCHAR ncaron
ENCODING 328
SWIDTH 459 0
DWIDTH 15 0
BBX 13 20 1 0
BITMAP
05001400
07D1B800
00BFE000
002F4000
00040000
00000000
006F8000
46FFF000
FF40B800
FC003D00
F4001E00
F0000F00
F0000B40
F0000780
B40003C0
B80003C0
780003C0
3C0003C0
2C0003C0
09000380
ENDCHAR
STARTCHAR napostrophe
ENCODING 329
SWIDTH 459 0
DWIDTH 15 0
BBX 13 22 1 0
BITMAP
09000000
1F000000
0B000000
0B000000
0B000000
1E000000
1D000000
00000000
006F8000
46FFF000
FF40B800
FC003D00
F4001E00
F0000F00
F0000B40
F0000780
B40003C0
B80003C0
780003C0
3C0003C0
2C0003C0
09000380
ENDCHAR
STARTCHAR Omacron
ENCODING 332
SWIDTH 609 0
DWIDTH 20 0
BBX 19 23 0 0
BITMAP
0000150000
000BFFE000
001FAAA000
0000000000
0000000000
0000000000
0000000000
0015000000
02FFE40000
0B96BF8000
1E0007F400
3800007D00
7400001F40
70000003D0
70000001E0
74000000B0
3800000074
3C00000078
1E00000074
0B800001F0
03F8001BD0
00BFABFE00
001AFE9000
ENDCHAR
STARTCHAR omacron
ENCODING 333
SWIDTH 487 0
DWIDTH 16 0
BBX 15 18 0 0
BITMAP
00015000
00BFFE00
01FAAA00
00000000
00000000
001BF900
01FFFF40
0BD01BD0
1E0001F0
380000B4
74000038
70000038
74000078
380001F4
2D0007F0
1F802FD0
07FFFE40
00AFE400
ENDCHAR
STARTCHAR Obreve
ENCODING 334
SWIDTH 609 0
DWIDTH 20 0
BBX 19 21 0 0
BITMAP
0002028000
0003974000
0001FD0000
0000000000
0000000000
0015000000
02FFE40000
0B96BF8000
1E0007F400
3800007D00
7400001F40
70000003D0
70000001E0
74000000B0
3800000074
3C00000078
1E00000074
0B800001F0
03F8001BD0
00BFABFE00
001AFE9000
ENDCHAR
STARTCHAR obreve
ENCODING 335
SWIDTH 487 0
DWIDTH 16 0
BBX 15 19 0 0
BITMAP
0080A000
00E5D000
007F4000
00000000
00000000
00000000
001BF900
01FFFF40
0BD01BD0
1E0001F0
380000B4
74000038
70000038
74000078
380001F4
2D0007F0
1F802FD0
07FFFE40
00AFE400
ENDCHAR
STARTCHAR Ohungarumlaut
ENCODING 336
SWIDTH 609 0
DWIDTH 20 0
BBX 19 23 0 0
BITMAP
0001D14000
000BC78000
001E1F0000
0018280000
0000100000
0000000000
0000000000
0015000000
02FFE40000
0B96BF8000
1E0007F400
3800007D00
7400001F40
70000003D0
70000001E0
74000000B0
3800000074
3C00000078
1E00000074
0B800001F0
03F8001BD0
00BFABFE00
001AFE9000
ENDCHAR
STARTCHAR ohungarumlaut
ENCODING 337
SWIDTH 487 0
DWIDTH 16 0
BBX 15 18 0 0
BITMAP
001D0400
00BC7C00
01F1F000
0182C000
00010000
001BF900
01FFFF40
0BD01BD0
1E0001F0
380000B4
74000038
70000038
74000078
380001F4
2D0007F0
1F802FD0
07FFFE40
00AFE400
ENDCHAR
STARTCHAR OE
ENCODING 338
SWIDTH 848 0
DWIDTH 27 0
BBX 27 16 0 0
BITMAP
00190000000000
02FFE4BFFFFFD0
0B95BDB5555560
1D002FF0000000
38000BF0000000
740003F0000000
700002F0015A90
700001FEFFFA40
740000F5500000
380000E0000000
2D0000E0000000
1F0001E0000000
0BD002E0000000
02F907E0000000
00BFEFFAAAFFF4
0006F91BFFFA90
ENDCHAR
STARTCHAR oe
ENCODING 339
SWIDTH 875 0
DWIDTH 28 0
BBX 27 17 0 -1
BITMAP
00000000054000
00000000BFF400
00005003E47C00
006FFD0F401D00
02FEBF9D000E00
0B800BF8000E00
2D0001F4001E00
380000B400BC00
740000795BF000
7000007BFE4000
740000B8500000
380001F8000000
2D0007FD000000
1F402FDF400000
07FAFE47E40000
00AFE400BFFFF8
000000001BFF90
ENDCHAR
STARTCHAR Racute
ENCODING 340
SWIDTH 579 0
DWIDTH 19 0
BBX 19 28 -1 -2
BITMAP
0000005000
000002D000
00000B8000
00003D0000
0000740000
0000100000
01AFFE4000
1FFFFFF800
3D00016F40
74000007D0
20200001E0
00340000E0
00340002E0
0038006FC0
003D6BFE00
003FFF9000
002F940000
002F000000
001FC00000
001EE00000
000D780000
000A1E0000
000B078000
000701F400
0003407E00
0001000BD0
00000001F8
0000000010
ENDCHAR
STARTCHAR racute
ENCODING 341
SWIDTH 346 0
DWIDTH 11 0
BBX 11 21 0 0
BITMAP
000100
000B40
002E00
00F400
01D000
004000
001500
06FFE0
7F96F8
7C0004
780000
780000
380000
380000
2C0000
2D0000
1E0000
0F0000
0B4000
074000
024000
ENDCHAR
STARTCHAR Rcommaaccent
ENCODING 342
SWIDTH 579 0
DWIDTH 19 0
BBX 19 30 -1 -10
BITMAP
01AFFE4000
1FFFFFF800
3D00016F40
74000007D0
20200001E0
00340000E0
00340002E0
0038006FC0
003D6BFE00
003FFF9000
002F940000
002F000000
001FC00000
001EE00000
000D780000
000A1E0000
000B078000
000701F400
0003407E00
0001000BD0
00000001F8
0000000010
0000000000
0000180000
00003D0000
00001E0000
00001E0000
00001D0000
00003D0000
0000380000
ENDCHAR
STARTCHAR rcommaaccent
ENCODING 343
SWIDTH 346 0
DWIDTH 11 0
BBX 11 25 0 -10
BITMAP
001500
06FFE0
7F96F8
7C0004
780000
780000
380000
380000
2C0000
2D0000
1E0000
0F0000
0B4000
074000
024000
000000
000000
000000
006000
00B800
007800
003800
007800
00B400
00A000
ENDCHAR
STARTCHAR Rcaron
ENCODING 344
SWIDTH 579 0
DWIDTH 19 0
BBX 19 29 -1 -2
BITMAP
0005001000
000B91F400
0000BFD000
00002E0000
0000040000
0000000000
0000000000
01AFFE4000
1FFFFFF800
3D00016F40
74000007D0
20200001E0
00340000E0
00340002E0
0038006FC0
003D6BFE00
003FFF9000
002F940000
002F000000
001FC00000
001EE00000
000D780000
000A1E0000
000B078000
000701F400
0003407E00
0001000BD0
00000001F8
0000000010
ENDCHAR
STARTCHAR rcaron
ENCODING 345
SWIDTH 346 0
DWIDTH 11 0
BBX 11 20 0 0
BITMAP
040050
1B82E0
01FF80
007D00
001000
001500
06FFE0
7F96F8
7C0004
780000
780000
380000
380000
2C0000
2D0000
1E0000
0F0000
0B4000
074000
024000
ENDCHAR
STARTCHAR Sacute
ENCODING 346
SWIDTH 627 0
DWIDTH 20 0
BBX 20 27 0 -1
BITMAP
0000010000
00000B4000
00003D0000
0000F40000
0001D00000
0000400000
0000040000
0006FFE800
002E957F40
00B40007D0
00A0000040
00B0000000
0078000000
002E000000
000BE00000
0000BE0000
00001BE000
000001BE00
1400001FD0
34000001F4
780000007C
3C0000003D
1E0000003C
07D0000078
00BFAAABF0
0006FFFE40
0000014000
ENDCHAR
STARTCHAR sacute
ENCODING 347
SWIDTH 514 0
DWIDTH 16 0
BBX 16 23 0 0
BITMAP
00000400
00002D00
0001F400
0007D000
000B4000
00000000
00000000
00000000
00694000
07FFF400
1F517C00
2C001C00
2C001C00
1E000400
0BE50000
01BFFE80
00015BF4
0000007D
0000002D
7800002E
2F40007D
0BFEAFF8
006BFF90
ENDCHAR
STARTCHAR Scircumflex
ENCODING 348
SWIDTH 627 0
DWIDTH 20 0
BBX 20 30 0 -1
BITMAP
0000040000
00002D0000
00003F4000
0000BFC000
0001E7E000
000BC1F400
000E007400
0000000000
0000000000
0000040000
0006FFE800
002E957F40
00B40007D0
00A0000040
00B0000000
0078000000
002E000000
000BE00000
0000BE0000
00001BE000
000001BE00
1400001FD0
34000001F4
780000007C
3C0000003D
1E0000003C
07D0000078
00BFAAABF0
0006FFFE40
0000014000
ENDCHAR
STARTCHAR scircumflex
ENCODING 349
SWIDTH 514 0
DWIDTH 16 0
BBX 16 24 0 0
BITMAP
00004000
0001E000
0002F400
0007FD00
001F7F00
007D1F40
00F40780
00000000
00000000
00694000
07FFF400
1F517C00
2C001C00
2C001C00
1E000400
0BE50000
01BFFE80
00015BF4
0000007D
0000002D
7800002E
2F40007D
0BFEAFF8
006BFF90
ENDCHAR
STARTCHAR Scedilla
ENCODING 350
SWIDTH 627 0
DWIDTH 20 0
BBX 20 30 0 -10
BITMAP
0000040000
0006FFE800
002E957F40
00B40007D0
00A0000040
00B0000000
0078000000
002E000000
000BE00000
0000BE0000
00001BE000
000001BE00
1400001FD0
34000001F4
780000007C
3C0000003D
1E0000003C
07D0000078
00BFAAABF0
000BFFFE40
000A014000
000A000000
0007400000
0002F94000
00001BD000
000000B000
0005007400
000B80B000
0002FAD000
00006A4000
ENDCHAR
STARTCHAR scedilla
ENCODING 351
SWIDTH 514 0
DWIDTH 16 0
BBX 16 25 0 -10
BITMAP
00694000
07FFF400
1F517C00
2C001C00
2C001C00
1E000400
0BE50000
01BFFE80
00015BF4
0000007D
0000002D
7800002E
2F40007D
0BFEAFF8
00BFFF90
00700000
00700000
00380000
001FA400
0001BE00
00000B40
00500740
00780740
001FAE00
0006A400
ENDCHAR
STARTCHAR Scaron
ENCODING 352
SWIDTH 627 0
DWIDTH 20 0
BBX 20 26 0 -1
BITMAP
0005001000
000B91F400
0000BFD000
00002E0000
0000040000
0000040000
0006FFE800
002E957F40
00B40007D0
00A0000040
00B0000000
0078000000
002E000000
000BE00000
0000BE0000
00001BE000
000001BE00
1400001FD0
34000001F4
780000007C
3C0000003D
1E0000003C
07D0000078
00BFAAABF0
0006FFFE40
0000014000
ENDCHAR
STARTCHAR scaron
ENCODING 353
SWIDTH 514 0
DWIDTH 16 0
BBX 16 20 0 0
BITMAP
00500140
007D1F40
000BFD00
0002E400
00004000
00694000
07FFF400
1F517C00
2C001C00
2C001C00
1E000400
0BE50000
01BFFE80
00015BF4
0000007D
0000002D
7800002E
2F40007D
0BFEAFF8
006BFF90
ENDCHAR
STARTCHAR Tcommaaccent
ENCODING 354
SWIDTH 581 0
DWIDTH 19 0
BBX 22 29 0 -9
BITMAP
555554000000
BFFFFFFEA400
015AAFABFF80
00000E001AD0
00000E000000
00000E000000
00000E000000
00000B000000
00000B000000
00000B000000
00000B400000
000007400000
000007800000
000007800000
000003C00000
000003C00000
000002D00000
000002E00000
000001F40000
000000B40000
000000000000
000000000000
000001900000
000002E00000
000001E00000
000000E00000
000001E00000
000002D00000
000002C00000
ENDCHAR
STARTCHAR tcommaaccent
ENCODING 355
SWIDTH 328 0
DWIDTH 11 0
BBX 10 30 0 -10
BITMAP
00E000
00F000
00F000
00F000
00F000
00F000
00F400
6FFFE0
6FFEA0
00B400
00F400
00F400
00F400
00F400
00B400
00B400
00B400
007400
007400
002400
000000
000000
000000
00A000
00F400
00B400
007400
00B400
00F000
00D000
ENDCHAR
STARTCHAR Tcaron
ENCODING 356
SWIDTH 581 0
DWIDTH 19 0
BBX 22 25 0 0
BITMAP
001400500000
001F47D00000
0002FF400000
0000B9000000
000010000000
555554000000
BFFFFFFEA400
015AAFABFF80
00000E001AD0
00000E000000
00000E000000
00000E000000
00000B000000
00000B000000
00000B000000
00000B400000
000007400000
000007800000
000007800000
000003C00000
000003C00000
000002D00000
000002E00000
000001F40000
000000B40000
ENDCHAR
STARTCHAR tcaron
ENCODING 357
SWIDTH 431 0
DWIDTH 14 0
BBX 14 23 0 0
BITMAP
00000240
00000380
000002C0
00E002C0
00F002D0
00F001D0
00F001D0
00F00040
00F00000
00F40000
6FFFE000
6FFEA000
00B40000
00F40000
00F40000
00F40000
00F40000
00B40000
00B40000
00B40000
00740000
00740000
00240000
ENDCHAR
STARTCHAR Utilde
ENCODING 360
SWIDTH 571 0
DWIDTH 18 0
BBX 17 23 1 0
BITMAP
0010001000
01FE01E000
0387EB8000
0740BE0000
0300000000
1400000000
7800009000
A00000E000
D00000F000
D00000F000
D00000F000
D00000F000
D00000B000
E000007400
A000003800
B000003C00
7400003D00
3800007E00
2C0001FF00
1E0007EF40
0BD16E0B80
03FFF40380
00BF800000
ENDCHAR
STARTCHAR utilde
ENCODING 361
SWIDTH 501 0
DWIDTH 16 0
BBX 16 22 0 0
BITMAP
00100010
01FE40B0
02C2EBD0
03407F00
02400000
00000000
00000000
24000000
74000040
B40002C0
B00002D0
740002D0
740002E0
780002E0
3C0002E0
2D0003E0
1E000BF0
0B401FF4
07D07878
01FFF02C
006F802D
0000001D
ENDCHAR
STARTCHAR Umacron
ENCODING 362
SWIDTH 571 0
DWIDTH 18 0
BBX 17 23 1 0
BITMAP
0001540000
007FFF0000
00FEAA0000
0000000000
0000000000
1400000000
7800009000
A00000E000
D00000F000
D00000F000
D00000F000
D00000F000
D00000B000
E000007400
A000003800
B000003C00
7400003D00
3800007E00
2C0001FF00
1E0007EF40
0BD16E0B80
03FFF40380
00BF800000
ENDCHAR
STARTCHAR umacron
ENCODING 363
SWIDTH 501 0
DWIDTH 16 0
BBX 16 20 0 0
BITMAP
00055000
01FFFC00
02FAA900
00000000
00000000
24000000
74000040
B40002C0
B00002D0
740002D0
740002E0
780002E0
3C0002E0
2D0003E0
1E000BF0
0B401FF4
07D07878
01FFF02C
006F802D
0000001D
ENDCHAR
STARTCHAR Ubreve
ENCODING 364
SWIDTH 571 0
DWIDTH 18 0
BBX 17 21 1 0
BITMAP
00101C0000
0029680000
000BE00000
1400000000
7800009000
A00000E000
D00000F000
D00000F000
D00000F000
D00000F000
D00000B000
E000007400
A000003800
B000003C00
7400003D00
3800007E00
2C0001FF00
1E0007EF40
0BD16E0B80
03FFF40380
00BF800000
ENDCHAR
STARTCHAR ubreve
ENCODING 365
SWIDTH 501 0
DWIDTH 16 0
BBX 16 19 0 0
BITMAP
00807000
00A5A000
002F8000
00000000
24000000
74000040
B40002C0
B00002D0
740002D0
740002E0
780002E0
3C0002E0
2D0003E0
1E000BF0
0B401FF4
07D07878
01FFF02C
006F802D
0000001D
ENDCHAR
STARTCHAR Uring
ENCODING 366
SWIDTH 571 0
DWIDTH 18 0
BBX 17 24 1 0
BITMAP
0000400000
000BE00000
0034240000
0030180000
0034740000
001FE00000
1400000000
7800009000
A00000E000
D00000F000
D00000F000
D00000F000
D00000F000
D00000B000
E000007400
A000003800
B000003C00
7400003D00
3800007E00
2C0001FF00
1E0007EF40
0BD16E0B80
03FFF40380
00BF800000
ENDCHAR
STARTCHAR uring
ENCODING 367
SWIDTH 501 0
DWIDTH 16 0
BBX 16 19 0 0
BITMAP
00004000
001BE000
00343400
00602800
24307400
741FD040
B40002C0
B00002D0
740002D0
740002E0
780002E0
3C0002E0
2D0003E0
1E000BF0
0B401FF4
07D07878
01FFF02C
006F802D
0000001D
ENDCHAR
STARTCHAR Uhungarumlaut
ENCODING 368
SWIDTH 571 0
DWIDTH 18 0
BBX 17 23 1 0
BITMAP
000A040000
007D6D0000
00F4F40000
00D1D00000
0000400000
1400000000
7800009000
A00000E000
D00000F000
D00000F000
D00000F000
D00000F000
D00000B000
E000007400
A000003800
B000003C00
7400003D00
3800007E00
2C0001FF00
1E0007EF40
0BD16E0B80
03FFF40380
00BF800000
ENDCHAR
STARTCHAR uhungarumlaut
ENCODING 369
SWIDTH 501 0
DWIDTH 16 0
BBX 16 22 0 0
BITMAP
00028100
001F4B40
002D3D00
00347400
00001000
00000000
00000000
24000000
74000040
B40002C0
B00002D0
740002D0
740002E0
780002E0
3C0002E0
2D0003E0
1E000BF0
0B401FF4
07D07878
01FFF02C
006F802D
0000001D
ENDCHAR
STARTCHAR Uogonek
ENCODING 370
SWIDTH 571 0
DWIDTH 18 0
BBX 18 21 1 -5
BITMAP
2C00001000
780000B000
B00000B400
A00000B400
A00000B400
A00000B400
A000007400
B000003800
7000003C00
7400002D00
3400002E00
2C00002F00
2D00007F40
0F0001FF80
0B801B97C0
03FAFD0BC0
00BFE07E40
001500B400
000000E000
000000F400
0000006FF0
ENDCHAR
STARTCHAR uogonek
ENCODING 371
SWIDTH 501 0
DWIDTH 16 0
BBX 17 19 0 -4
BITMAP
3400000000
7400004000
B40002C000
700002D000
740002E000
740002E000
380002E000
3C0002E000
2D0003E000
1E000BF000
0B402EF400
03E0B83800
01FFE02C00
002A407D00
000002E900
0000074000
00000B0000
00000B9000
000002FF40
ENDCHAR
STARTCHAR Wcircumflex
ENCODING 372
SWIDTH 703 0
DWIDTH 23 0
BBX 22 29 0 0
BITMAP
000001000000
000007800000
00000BD00000
00001FF40000
00007DFC0000
0001F47D0000
0003D01E0000
000000000000
000000000000
000000000000
000000000000
000000000000
000000000000
200000000400
B00000001E00
B00000001F00
B00000000F40
B40000000B80
B400000007C0
B400240002D0
7800380001E0
78003C0000E0
38003D0000F0
3C007E0000F0
2D00BF4001E0
1E02FBC003D0
0B9B81F41F80
03FE007FFE00
00A4000BE400
ENDCHAR
STARTCHAR wcircumflex
ENCODING 373
SWIDTH 656 0
DWIDTH 21 0
BBX 20 24 0 0
BITMAP
0000040000
00001E0000
00002F8000
00003FD000
0000F7F400
0007D0F800
000B403800
0000000000
0000000000
0000000000
0400000000
2800000000
3800000010
7400000074
B4000D002C
B0000E001D
B0001E000E
74001F000F
78001F000B
3C002F400F
1D00BF801F
0B46F6E5BE
03FFD0BFF8
00BE401550
ENDCHAR
STARTCHAR Ycircumflex
ENCODING 374
SWIDTH 403 0
DWIDTH 13 0
BBX 13 30 0 -1
BITMAP
00040000
001E0000
002F8000
003FD000
00F7F400
07D0F800
0B403800
00000000
50000000
70000100
78000740
3D000740
1F000B00
0B800F00
02E02E00
00BE7D00
001FFC00
0002F400
0000F000
0001E000
0002D000
0002C000
00038000
00074000
00074000
000B0000
000B0000
000B0000
000B0000
00010000
ENDCHAR
STARTCHAR ycircumflex
ENCODING 375
SWIDTH 487 0
DWIDTH 16 0
BBX 15 40 0 -16
BITMAP
00014000
0003C000
0007F000
000BF800
002EBE00
00B82F00
01E00B00
00000000
00000000
00000000
20000090
700000A0
700000A0
700000B0
740000B4
380000B4
3C000074
2D000078
1E0000B8
0B4001F8
03C007FC
01F9BE7C
006FF41C
0005401C
0000001C
0000001C
0000001C
0000002C
0000002C
0000002C
00000038
00000038
00000074
28000074
1E0000B0
0F8000E0
03F402D0
00BE5B80
001FFF00
00016400
ENDCHAR
STARTCHAR Ydieresis
ENCODING 376
SWIDTH 403 0
DWIDTH 13 0
BBX 13 26 0 -1
BITMAP
0280A000
07E1F800
07D1F400
00000000
50000000
70000100
78000740
3D000740
1F000B00
0B800F00
02E02E00
00BE7D00
001FFC00
0002F400
0000F000
0001E000
0002D000
0002C000
00038000
00074000
00074000
000B0000
000B0000
000B0000
000B0000
00010000
ENDCHAR
STARTCHAR Zacute
ENCODING 377
SWIDTH 571 0
DWIDTH 18 0
BBX 18 28 0 0
BITMAP
0000010000
00001E0000
0000B80000
0002E00000
0003800000
0001000000
0000000000
0000000000
06AA400000
7FEBF80000
64006E0000
00000B4000
0000038000
0000028000
0000028000
0000038000
00000B4000
00016FE900
00BFFFFF40
01EAFE4400
0000B40000
0000E00000
0002C00000
000B400000
001E000040
002D016FE0
001FBFFF90
000BFF9400
ENDCHAR
STARTCHAR zacute
ENCODING 378
SWIDTH 459 0
DWIDTH 15 0
BBX 14 23 0 0
BITMAP
00004000
0002C000
001F4000
007D0000
00B40000
00400000
01594000
1FFFE000
7D55B400
24003800
00003800
00003800
0000B400
0000F000
16AFFF40
2FFFA500
006E0000
00780000
01F00000
03E00050
07E45BE0
03FFFF90
00BFA400
ENDCHAR
STARTCHAR Zdotaccent
ENCODING 379
SWIDTH 571 0
DWIDTH 18 0
BBX 18 25 0 0
BITMAP
0005000000
000B400000
0007400000
0001000000
0000000000
06AA400000
7FEBF80000
64006E0000
00000B4000
0000038000
0000028000
0000028000
0000038000
00000B4000
00016FE900
00BFFFFF40
01EAFE4400
0000B40000
0000E00000
0002C00000
000B400000
001E000040
002D016FE0
001FBFFF90
000BFF9400
ENDCHAR
STARTCHAR zdotaccent
ENCODING 380
SWIDTH 459 0
DWIDTH 15 0
BBX 14 22 0 0
BITMAP
00060000
00078000
00078000
00010000
00000000
01594000
1FFFE000
7D55B400
24003800
00003800
00003800
0000B400
0000F000
16AFFF40
2FFFA500
006E0000
00780000
01F00000
03E00050
07E45BE0
03FFFF90
00BFA400
ENDCHAR
STARTCHAR Zcaron
ENCODING 381
SWIDTH 571 0
DWIDTH 18 0
BBX 18 26 0 0
BITMAP
0040010000
00B81F0000
000BFD0000
0003E00000
0001400000
0000000000
06AA400000
7FEBF80000
64006E0000
00000B4000
0000038000
0000028000
0000028000
0000038000
00000B4000
00016FE900
00BFFFFF40
01EAFE4400
0000B40000
0000E00000
0002C00000
000B400000
001E000040
002D016FE0
001FBFFF90
000BFF9400
ENDCHAR
STARTCHAR zcaron
ENCODING 382
SWIDTH 459 0
DWIDTH 15 0
BBX 14 22 0 0
BITMAP
05001000
0B91F400
00BFD000
002E0000
00040000
01594000
1FFFE000
7D55B400
24003800
00003800
00003800
0000B400
0000F000
16AFFF40
2FFFA500
006E0000
00780000
01F00000
03E00050
07E45BE0
03FFFF90
00BFA400
ENDCHAR
STARTCHAR florin
ENCODING 402
SWIDTH 376 0
DWIDTH 12 0
BBX 18 32 -3 -9
BITMAP
0000055000
00007FF800
0000F96F40
0002E00BC0
00038002D0
0007400040
000B000000
000B000000
000F000000
000F000000
000F000000
000F000000
000F540000
02FFFFF000
079B9A9000
0007800000
0007800000
0007800000
0007800000
0007400000
0007400000
0007400000
000B400000
000B400000
000B400000
500B400000
B00B000000
7C0B000000
1F4F000000
07FF000000
00BF000000
0004000000
ENDCHAR
STARTCHAR AEacute
ENCODING 508
SWIDTH 960 0
DWIDTH 31 0
BBX 30 28 0 0
BITMAP
0000000004000000
000000002D000000
00000001F4000000
00015007D0000000
002FFD0B40000000
00B95F8000000000
02D002D000000000
034000F000000000
07000074BEAAAA40
0A00002DFFFFFFD0
0D00001DE0000010
0D00000EE0000000
0C00000BE0000000
1C00000BE0000000
1C000007E0000000
1C000007E0006A80
1C000007FABFFE00
2EAA555BFEA95000
7FAAAFFFD0000000
2D000053D0000000
1D000003C0000000
1D000002C0000000
1D000002C0000000
1E000002C0000000
0E000003C0000000
0F000003E4556AA0
0B000007FFFFFFE0
070000075BFFA900
ENDCHAR
STARTCHAR aeacute
ENCODING 509
SWIDTH 881 0
DWIDTH 28 0
BBX 28 24 0 -1
BITMAP
00000000400000
00000002D00000
0000000F400000
0000003D000000
00000074000000
00000010000000
00000000000000
002F80001A9000
007FF401BEF800
00507E07D02E00
00000B4B000F00
000003DD000B00
000002FC000B00
00AEA5F8002E00
07FEBFF801BC00
1F9007FAAFE000
3C0001FDBA0000
7400007C000000
7400002D000000
3800000E000000
1F9456AFD00000
07FFFFF9FE5559
006BFA406FFFF8
0000000005AA40
ENDCHAR
STARTCHAR Oslashacute
ENCODING 510
SWIDTH 609 0
DWIDTH 20 0
BBX 19 25 0 -3
BITMAP
00001D0000
0000B80000
0002E00000
0007800000
0001000000
0000004000
001501C000
02FFE6C000
0B96BFC000
1E0007F400
380007BD00
74000A1F40
70001D03D0
70002C01E0
74003800B0
3800740074
3C00B00078
1E00E00074
0B82D001F0
03FB801BD0
00BFEBFE00
001FFE9000
001E000000
002C000000
0024000000
ENDCHAR
STARTCHAR oslashacute
ENCODING 511
SWIDTH 487 0
DWIDTH 16 0
BBX 15 19 0 0
BITMAP
00007400
0002E000
000B8000
001E0000
00140000
00005050
006FFEE0
02FEBFD0
0B800BD0
2D000FF0
38002D74
74007838
7001F038
7403D078
380B81F4
2D1E07E0
1FBC2FD0
07FEFE40
02EFE400
ENDCHAR
STARTCHAR Scommaaccent
ENCODING 536
SWIDTH 627 0
DWIDTH 20 0
BBX 20 30 0 -10
BITMAP
0000040000
0006FFE800
002E957F40
00B40007D0
00A0000040
00B0000000
0078000000
002E000000
000BE00000
0000BE0000
00001BE000
000001BE00
1400001FD0
34000001F4
780000007C
3C0000003D
1E0000003C
07D0000078
00BFAAABF0
0006FFFE40
0000014000
0000000000
0000000000
0000600000
0000F40000
0000780000
0000780000
0000740000
0000F40000
0000E00000
ENDCHAR
STARTCHAR scommaaccent
ENCODING 537
SWIDTH 514 0
DWIDTH 16 0
BBX 16 25 0 -10
BITMAP
00694000
07FFF400
1F517C00
2C001C00
2C001C00
1E000400
0BE50000
01BFFE80
00015BF4
0000007D
0000002D
7800002E
2F40007D
0BFEAFF8
006BFF90
00000000
00000000
00000000
00028000
0003D000
0002D000
0001D000
0002D000
0003C000
00034000
ENDCHAR
STARTCHAR circumflex
ENCODING 710
SWIDTH 375 0
DWIDTH 12 0
BBX 10 7 1 17
BITMAP
005000
00B400
00FC00
02FE00
0BAF80
2E0BC0
7802D0
ENDCHAR
STARTCHAR caron
ENCODING 711
SWIDTH 375 0
DWIDTH 12 0
BBX 8 5 2 15
BITMAP
4001
B81F
0BFD
03E0
0140
ENDCHAR
STARTCHAR breve
ENCODING 728
SWIDTH 224 0
DWIDTH 7 0
BBX 7 3 0 13
BITMAP
5028
3574
1FD0
ENDCHAR
STARTCHAR dotaccent
ENCODING 729
SWIDTH 152 0
DWIDTH 5 0
BBX 3 4 1 14
BITMAP
60
78
78
10
ENDCHAR
STARTCHAR ring
ENCODING 730
SWIDTH 333 0
DWIDTH 11 0
BBX 6 6 3 13
BITMAP
0100
2F80
90A0
C060
D0D0
7F80
ENDCHAR
STARTCHAR ogonek
ENCODING 731
SWIDTH 254 0
DWIDTH 8 0
BBX 6 7 1 -5
BITMAP
0100
1F40
B800
E000
E000
BA50
1AA0
ENDCHAR
STARTCHAR tilde
ENCODING 732
SWIDTH 402 0
DWIDTH 13 0
BBX 12 5 0 13
BITMAP
010000
1FE01E
387EB8
700BE0
300000
ENDCHAR
STARTCHAR hungarumlaut
ENCODING 733
SWIDTH 264 0
DWIDTH 8 0
BBX 7 5 1 13
BITMAP
1904
7D7C
F5F4
D2D0
0140
ENDCHAR
STARTCHAR Wgrave
ENCODING 7808
SWIDTH 703 0
DWIDTH 23 0
BBX 22 23 0 0
BITMAP
000019000000
00000F400000
000007D00000
000000A00000
000000000000
000000000000
000000000000
200000000400
B00000001E00
B00000001F00
B00000000F40
B40000000B80
B400000007C0
B400240002D0
7800380001E0
78003C0000E0
38003D0000F0
3C007E0000F0
2D00BF4001E0
1E02FBC003D0
0B9B81F41F80
03FE007FFE00
00A4000BE400
ENDCHAR
STARTCHAR wgrave
ENCODING 7809
SWIDTH 656 0
DWIDTH 21 0
BBX 20 18 0 0
BITMAP
0000240000
00002E0000
00000B8000
000002C000
0400000000
2800000000
3800000010
7400000074
B4000D002C
B0000E001D
B0001E000E
74001F000F
78001F000B
3C002F400F
1D00BF801F
0B46F6E5BE
03FFD0BFF8
00BE401550
ENDCHAR
STARTCHAR Wacute
ENCODING 7810
SWIDTH 703 0
DWIDTH 23 0
BBX 22 23 0 0
BITMAP
000000400000
000006C00000
00001F400000
00007D000000
0000B0000000
000040000000
000000000000
200000000400
B00000001E00
B00000001F00
B00000000F40
B40000000B80
B400000007C0
B400240002D0
7800380001E0
78003C0000E0
38003D0000F0
3C007E0000F0
2D00BF4001E0
1E02FBC003D0
0B9B81F41F80
03FE007FFE00
00A4000BE400
ENDCHAR
STARTCHAR wacute
ENCODING 7811
SWIDTH 656 0
DWIDTH 21 0
BBX 20 21 0 0
BITMAP
0000004000
000007C000
00001F0000
00007C0000
0000E00000
0000400000
0000000000
0400000000
2800000000
3800000010
7400000074
B4000D002C
B0000E001D
B0001E000E
74001F000F
78001F000B
3C002F400F
1D00BF801F
0B46F6E5BE
03FFD0BFF8
00BE401550
ENDCHAR
STARTCHAR Wdieresis
ENCODING 7812
SWIDTH 703 0
DWIDTH 23 0
BBX 22 22 0 0
BITMAP
000090240000
0002F4BD0000
0002F0BC0000
000040100000
000000000000
000000000000
200000000400
B00000001E00
B00000001F00
B00000000F40
B40000000B80
B400000007C0
B400240002D0
7800380001E0
78003C0000E0
38003D0000F0
3C007E0000F0
2D00BF4001E0
1E02FBC003D0
0B9B81F41F80
03FE007FFE00
00A4000BE400
ENDCHAR
STARTCHAR wdieresis
ENCODING 7813
SWIDTH 656 0
DWIDTH 21 0
BBX 20 17 0 0
BITMAP
000280A000
0007D1F400
0007D1F400
0400000000
2800000000
3800000010
7400000074
B4000D002C
B0000E001D
B0001E000E
74001F000F
78001F000B
3C002F400F
1D00BF801F
0B46F6E5BE
03FFD0BFF8
00BE401550
ENDCHAR
STARTCHAR Ygrave
ENCODING 7922
SWIDTH 403 0
DWIDTH 13 0
BBX 13 27 0 -1
BITMAP
00600000
007D0000
001F4000
00074000
00000000
50000000
70000100
78000740
3D000740
1F000B00
0B800F00
02E02E00
00BE7D00
001FFC00
0002F400
0000F000
0001E000
0002D000
0002C000
00038000
00074000
00074000
000B0000
000B0000
000B0000
000B0000
00010000
ENDCHAR
STARTCHAR ygrave
ENCODING 7923
SWIDTH 487 0
DWIDTH 16 0
BBX 15 34 0 -16
BITMAP
00090000
000B8000
0002F000
00007400
20000090
700000A0
700000A0
700000B0
740000B4
380000B4
3C000074
2D000078
1E0000B8
0B4001F8
03C007FC
01F9BE7C
006FF41C
0005401C
0000001C
0000001C
0000001C
0000002C
0000002C
0000002C
00000038
00000038
00000074
28000074
1E0000B0
0F8000E0
03F402D0
00BE5B80
001FFF00
00016400
ENDCHAR
STARTCHAR endash
ENCODING 8211
SWIDTH 287 0
DWIDTH 9 0
BBX 9 4 0 7
BITMAP
001000
2FFF40
7FAB80
100000
ENDCHAR
STARTCHAR emdash
ENCODING 8212
SWIDTH 512 0
DWIDTH 16 0
BBX 16 3 0 7
BITMAP
06BFFFFC
7FFFAAAD
14000000
ENDCHAR
STARTCHAR quoteleft
ENCODING 8216
SWIDTH 102 0
DWIDTH 3 0
BBX 3 8 0 15
BITMAP
70
74
74
78
78
38
28
04
ENDCHAR
STARTCHAR quoteright
ENCODING 8217
SWIDTH 102 0
DWIDTH 3 0
BBX 3 8 0 15
BITMAP
70
74
74
78
78
38
28
04
ENDCHAR
STARTCHAR quotesinglbase
ENCODING 8218
SWIDTH 102 0
DWIDTH 3 0
BBX 3 8 0 -1
BITMAP
20
74
74
78
38
3C
2C
18
ENDCHAR
STARTCHAR quotedblleft
ENCODING 8220
SWIDTH 234 0
DWIDTH 8 0
BBX 7 11 0 15
BITMAP
0050
5060
A070
B074
7474
7874
3878
2C78
1D78
0938
0010
ENDCHAR
STARTCHAR quotedblright
ENCODING 8221
SWIDTH 234 0
DWIDTH 8 0
BBX 7 11 0 15
BITMAP
0050
5060
A070
B074
7474
7874
3878
2C78
1D78
0938
0010
ENDCHAR
STARTCHAR quotedblbase
ENCODING 8222
SWIDTH 341 0
DWIDTH 11 0
BBX 7 10 2 -4
BITMAP
0050
9070
B074
7474
7474
3878
3C78
2D78
1D38
0428
ENDCHAR
STARTCHAR dagger
ENCODING 8224
SWIDTH 375 0
DWIDTH 12 0
BBX 10 21 1 0
BITMAP
010000
024000
028000
02C000
01D000
00D000
00A000
1AFA90
FFFFF0
A5B050
007400
007400
007400
007400
007400
007400
007800
007800
003800
003800
003800
ENDCHAR
STARTCHAR daggerdbl
ENCODING 8225
SWIDTH 375 0
DWIDTH 12 0
BBX 16 24 -2 0
BITMAP
000A0000
000F0000
000F0000
000B4000
00074000
00078000
00038000
00028000
0156D550
7FFFFFFD
6AAAD56D
0001D000
0000D000
6AFFFFE4
2FFFFFF4
0000D000
0000D000
0000D000
0000D000
0000D000
0000E000
0000E000
0000E000
0000E000
ENDCHAR
STARTCHAR bullet
ENCODING 8226
SWIDTH 341 0
DWIDTH 11 0
BBX 6 7 3 5
BITMAP
0500
1F80
3FD0
BFF0
7FE0
3FD0
1A00
ENDCHAR
STARTCHAR ellipsis
ENCODING 8230
SWIDTH 612 0
DWIDTH 20 0
BBX 18 6 1 0
BITMAP
1D00E00740
3F41F80FD0
7F83FC1FE0
BF83FC1FE0
7F42F80FD0
2D00E00740
ENDCHAR
STARTCHAR guilsinglleft
ENCODING 8249
SWIDTH 487 0
DWIDTH 16 0
BBX 15 13 0 0
BITMAP
000000B4
000007E0
00002F40
0001F800
000BD000
007E0000
02F40000
0B800000
2E000000
BFA40000
6FFFF900
016AFFD0
000006D0
ENDCHAR
STARTCHAR guilsinglright
ENCODING 8250
SWIDTH 403 0
DWIDTH 13 0
BBX 12 15 1 0
BITMAP
A00000
F80000
2F9000
07FE40
006FFD
00017E
00003D
0000B8
0007E0
001F40
00BD00
07E000
2F4000
B80000
E00000
ENDCHAR
STARTCHAR fraction
ENCODING 8260
SWIDTH 309 0
DWIDTH 10 0
BBX 10 24 0 0
BITMAP
000090
0001D0
0001C0
0002C0
000380
000740
000B00
000E00
001E00
002D00
003C00
007800
00B400
00F000
02E000
03C000
078000
0B4000
0F0000
1E0000
3D0000
780000
B40000
600000
ENDCHAR
STARTCHAR Euro
ENCODING 8364
SWIDTH 741 0
DWIDTH 24 0
BBX 23 23 0 0
BITMAP
000000000400
00000001BF40
0000000BE680
0000007E0040
000001E00000
00000BD00000
00056FFE4000
6FFFFFFFE000
FFABF4144000
4002C0000000
000340000000
000700000000
000B9AFFC000
15AFFEA54000
BFFE40000000
501D00000000
001D00000000
000D00000000
000A00000000
000740000054
0003D0016FF8
0001FEFFFF90
00002FFA9400
ENDCHAR
STARTCHAR trademark
ENCODING 8482
SWIDTH 1116 0
DWIDTH 36 0
BBX 35 20 0 0
BITMAP
6A9555000140000040
6FFFFFFFA7E00001E0
0056AFAAFFF40002E0
00000E0016FC0003E0
00000E00007D000BD0
00000E00007F401FD0
00000E00007BE5BFD0
00000B000075FFFBD0
00000B0000741A41D0
00000B0000740001D0
00000B4000740001E0
0000074000B40000E0
0000078000B40000F0
0000078000B40000F0
000003C000B40000B4
000003C000B40000B4
000002D000B40000B8
000002E000B4000078
000001F40074000078
000000F40000000078
ENDCHAR
STARTCHAR minus
ENCODING 8722
SWIDTH 287 0
DWIDTH 9 0
BBX 9 4 0 7
BITMAP
001000
2FFF40
7FAB80
100000
ENDCHAR
STARTCHAR commaaccent
ENCODING 63171
SWIDTH 375 0
DWIDTH 12 0
BBX 3 7 3 -10
BITMAP
24
7C
2C
2C
2C
78
74
ENDCHAR
STARTCHAR fi
ENCODING 64257
SWIDTH 551 0
DWIDTH 18 0
BBX 16 24 -1 -1
BITMAP
00005500
0007FF80
000F96F4
002D00BC
0034092D
00700F04
00A00500
00A00000
00E00000
00E00040
00F001D0
00F001D0
00F541D0
2FFFFFD0
79BEBEE0
003D01E0
001E01F0
000F00F0
000B80F4
0003D0F4
0002F0B8
0000F8B8
00007878
00000024
ENDCHAR
STARTCHAR fl
ENCODING 64258
SWIDTH 723 0
DWIDTH 23 0
BBX 16 23 -1 0
BITMAP
00005500
0007FF80
000F96F4
002D00BC
0034002D
00700284
00A002C0
00A002C0
00E003C0
00E003C0
00F003C0
00F003D0
00F543D0
2FFFFFD0
79BEBBD0
003D03D0
001E03D0
000F03D0
000B83D0
0003D2D0
0002F2C0
0000FAC0
000079C0
ENDCHAR
STARTCHAR .notdef
ENCODING -1
SWIDTH 375 0
DWIDTH 12 0
BBX 1 1 0 0
BITMAP
00
ENDCHAR
STARTCHAR .null
ENCODING -1
SWIDTH 0 0
DWIDTH 0 0
BBX 1 1 0 0
BITMAP
00
ENDCHAR
STARTCHAR nonmarkingreturn
ENCODING -1
SWIDTH 375 0
DWIDTH 12 0
BBX 1 1 0 0
BITMAP
00
ENDCHAR
ENDFONT
